<mxfile host="65bd71144e">
    <diagram id="HIP3nbAZw_EuaXWnEj3U" name="Page-1">
        <mxGraphModel dx="707" dy="390" grid="1" gridSize="10" guides="1" tooltips="1" connect="1" arrows="1" fold="1" page="1" pageScale="1" pageWidth="850" pageHeight="1100" math="0" shadow="0">
            <root>
                <mxCell id="0"/>
                <mxCell id="1" parent="0"/>
                <mxCell id="7" value="http://ics2o.mths.ca" style="swimlane;whiteSpace=wrap;html=1;" parent="1" vertex="1">
                    <mxGeometry x="40" y="40" width="760" height="480" as="geometry"/>
                </mxCell>
                <mxCell id="10" value="__________________________________" style="text;html=1;align=center;verticalAlign=middle;resizable=0;points=[];autosize=1;strokeColor=none;fillColor=none;" vertex="1" parent="7">
                    <mxGeometry x="10" y="130" width="250" height="30" as="geometry"/>
                </mxCell>
                <mxCell id="11" value="__________________________________" style="text;html=1;align=center;verticalAlign=middle;resizable=0;points=[];autosize=1;strokeColor=none;fillColor=none;" vertex="1" parent="7">
                    <mxGeometry x="10" y="190" width="250" height="30" as="geometry"/>
                </mxCell>
                <mxCell id="12" value="First Number" style="text;html=1;align=center;verticalAlign=middle;resizable=0;points=[];autosize=1;strokeColor=none;fillColor=none;" vertex="1" parent="7">
                    <mxGeometry x="20" y="120" width="90" height="30" as="geometry"/>
                </mxCell>
                <mxCell id="13" value="Second Number" style="text;html=1;align=center;verticalAlign=middle;resizable=0;points=[];autosize=1;strokeColor=none;fillColor=none;" vertex="1" parent="7">
                    <mxGeometry x="10" y="180" width="110" height="30" as="geometry"/>
                </mxCell>
                <mxCell id="14" value="Calculate" style="rounded=1;whiteSpace=wrap;html=1;" vertex="1" parent="7">
                    <mxGeometry x="10" y="240" width="120" height="60" as="geometry"/>
                </mxCell>
                <mxCell id="15" value="" style="shape=image;verticalLabelPosition=bottom;labelBackgroundColor=default;verticalAlign=top;aspect=fixed;imageAspect=0;image=data:image/jpeg,/9j/4AAQSkZJRgABAQAAAQABAAD/2wCEAAMCAggICAgICAgKCgoKCgsLCwsLCwwMDAwMDAwNDQ0NDQ0NDQ4ODg4ODg4QEBQQEBARExMTERIZHhcTIBMVFxYBAwQEBgUGCgYGChANCw4QEA8QDg8QDw0QDxAPEA8NDw0NDhAPDQ0NDQ0NDQ0NDg0NDQ0NDQ0NDQ0NDQ0NDQ0NDf/AABEIAYICrgMBIgACEQEDEQH/xAAeAAEAAgIDAQEBAAAAAAAAAAAACAkGBwEEBQIDCv/EAGAQAAEDAgEGBgsJCgoJAwUBAAEAAgMEEQUGBwgSITEJE0FRYXEUIjI2cnSBkaGztDVCUlRzdZOxwRkjMzRilLLR0tMXJlNVgoSSosPUFRYYJCVDRMLwY6PhZHa14uOD/8QAGwEBAAIDAQEAAAAAAAAAAAAAAAUGAwQHAgH/xABDEQABAwIDBAcGAwYGAgIDAAABAAIDBBEFITESQVFxBjM0YYGRsRMUMqHB0SJSchVTgrLh8BYjJDVCYpLxVKIlQ2P/2gAMAwEAAhEDEQA/ALU0REREREREREREREREREREREREREREREREREREREREREREREREREREREREREREREREREREREREREREREREREREREREREREREREREREREREREREREREREREREREREREREREREREREREREREREREREREREREREREREREREREREREREREREREUQ8+vCIUmBYpUYZLh1TUPp+LvIyWJjXcZG2QWa4EiwcBt5QsB+62UP8ANFZ+cQ/qUmzDKl7Q5rCQc9y3G0kzhcNyU+kUBfutlD/NFX+cQ/qT7rZQ/wA0Vn08P6lk/ZNX+7Py+69e4z/lU+kWLZrsvGYph1HiEbHRx1lPHUNY4guYJG31XEbCW7jblCyglRLgWkg6haRFjYrlFEDPhwi9HgmJ1OGPw+oqX0xjDpY5omtLpImSkWcLgt1w035QsE+62UP80Vf5xD+pSbMMqntDmsNjyW42jmcLhuSn0igL91sof5oq/wA4h/UuDwtlD/NFX9PD+pe/2TV/uz8l99xn/Kp9osMzPZx2YvhlJiUcbomVcXGtjeQXMGsW2JGw7t4WZqKc0tJadQtIgg2KIiLyviIiIiIiIiItRaUme2TJ7CZcSigZUujlgj4p7zG0iWQMJ1mtce1ve1tqhX91vrP5mpvzuX9ypKmw6oqW7cTbjTUBbcVLJKNpgyVmKKs77rfWfzNTfncv7lTM0Us+8mUeFDEZadlM4zzQ8WyQyN+9FtnBzmtO3W3W5OlfajDainZtytsL21BSWlkiG08ZLcqLDM8WcdmEYZV4lJG6ZlJFxro2ENc8awbYF2wHbyqHH3Wyh/mis/OIf1LDBRTTguibcBeI6eSUXYLqfS4UBvutlD/NFX9PD+pSp0dM+keUWGtxGKB9Ox00sPFSOa914iAXXbYWN9gX2ehngbtyNsNF9kppIxd4sFsHHMdhpoZaieRsUMMb5ZZXmzI42NLnvceRrWgknmWqf9sbJf8Anuh+lP7K9fSeH8XMd+aa/wBmlVEKlcKwtlY1znOIsbZLco6Rs7SSSLK8f/bHyX/nuh+lP7KzXN7ncw3FmyOw6shrGwua2Uwu1gwvBLQ7YLawaSOoqgO6so4JD8Vxv5ej9XOtrEcFjpoDK1xJFtbbzZZqqgZDGXglWCBcrgLlVJQiIiIiIiIiIi8vKjFTBTTztAcYYZZQ0mwdxbHPsTY2va17FfQL5IvURVnDhbq3+Zqb87l/cp91vrf5mpvzuX9ypz9iVn5PmPupH9nz/l+aswKxPODnTw/Co2TYjVw0ccj+LjfM7Va5+qXaoO251QTbmCj/AKHWmbPlRU1sEtDFSClhjlDo5nS6+u8sIIdG21rXuCsD4WQf8Iwz5xPs0y1YqF3vTaaXInXQ7r8liZTn2oifkpB/7Y+S/wDPdD9Kf2U/2xsl/wCe6H6U/sqji6K2f4ci/O75Ka/ZbPzH5L+hnJzKSCrgiqaaVs0EzBJFKw3ZIx25zTygr0wtNaHo/ixgniEP2rcoVElZsPczgSPmq49uy4hcoiLGvCIiIiIiIiIiIiIiIiIiIiIi/NzkRfoig7lnwpFFRVlVRuwqqe6lqJqdzxPCA8wyOjLgCLgOLbgHbZeP91sof5oq/wA4h/UpYYVVEXDD8luiimIuGqfS+XFRi0aNOSmylrpKGGhnpXRU7qgvllje0hskbNUBgvcmQG+6wUnCo+aB8L9iQWPBa0kbozsuFitW5RaUmT1JPLTVOLUcM8LyyWJ8lnseN7XCxsQvN/2x8l/57ofpT+yqmNL7vnxvx+X7FqC6ucHR+J8bXl5zAO7eLqejw1jmh20cwr3sk9JjAa+ojpaPFaSoqJb8XDHJd79VpcdUWF7NaT1BbOaVSpoE99mE+HP7LMrqWqu4pRNpJRG0k5Xz8VF1lOIHhoN8l9oiKIWiiIiIiIiIiIiIiIiIiIiIiIiIiIiIiIiIqXuEG77MT/q3s0SjkpG8IP32Yn/VvZolHJdew/s0f6R6K703VN5IiIt9bKuc4PPKHsjJXDxraxgdUU7ujUneWt8jHtt0WUkHKEnBR4/r4JXU/LBiLn7+SaCHk5NsZ9KmfjNaI4pZCbNjje8k7gGtLiT1ALkWIM2amRv/AGPzzVKqW2mcO9UY6UeUHZWUWMzchxCpjHLshkMIPlEYK1avRyixMzVE8xNzLNLKTzmR7nk+Ulecurwt2I2t4AD5K4xizQO4IiIsyyK77Qo71sF8UHrHreC0foU96uC+KD1j1GTSb4QnGMGxutw2lpsPfBTOiax08c7pTrwxyHWLKhje6eQLNGy29cn91kqamRketyfmqZ7F00rms4n1VhaKqL7qxlB8Uwr6Gp/zazXMrwk2N4ji+HUE9LhrYaysgp5HRxVDZGsleGEsLql7Q4XuLtI2LZfglUxpcQLDPVZXYfM0XNvNWUIvklVeZZ8KDj1PWVdOykwssgqZ4WF0NSXFsUr2NLiKoAus0XIAF+QbloUlFLVEiIaa7lrQ075iQzcrRUVUX3VjKD4phX0NT/m1vzQt03sVyjxaSgrYKGKFlFNUh1PHMyTXjlp4wCZJ5G6tpXXGre4G0bb7k2D1MLDI8Cw71nkoZWNLjawWdcJUP4q1PjNH64KnhXD8JSf4q1XjVH64KnhWvo92Y/qP0UzhnUnmit44MLvYb49V/wCGqh1brwYzrZLt8fq/8NfekPZR+oehTE+qHP7rZWmv3rYz4ofWMVIKtW0ttMHJ+qwXF8MgrtetdG+nbFxFSLzMla1zdd0QZsLXbda2zeqqLr50fjfHC7bBGe/LcEw1jmxnaFs/ouVb3wZI/ivH49WfpNVQasc0GNLPAcHwFlFiFbxFS2qqJDHxFRJ2kjmlp1o4nN22Oy91lx6J8lMAwEnaGme4r3iLXOis0XzH1U3s8mSEuIYTiVBCWNlrKGppo3SEiNr5oXxtLy1rnBoLhchriByFVmjgrso/jGE/nNT/AJJWVZy84hpcFrsUpgyUwYdPWwB4cGP1IHTR67e0fqusLjtXWvuKreHCsZQfFMK+hqv82qzhPvoa4U1rXzvxUTRe3DT7K3fddb7ldlH8Ywn85qv8kpfaCmjFiGTUOIx18lK91XLA+PsWSWQARMka7XMkMNiS8WADtx3csSvurGUHxTCvoar/ADal3oNaUFdlNDiEldFTROpJYGR9jNkYCJWSOOuJJZSSCwWII2HctvETiHsD7xs7GV7c1nqvefZn2lrdylCFyoq6c+lPiGTLcOdQw0svZbqlsnZTJX24kQlupxc0Vr8Y699bk3bVE37qxlB8Uwr6Gp/zahqbCqiojEkYFua0IqKSVu03RWuIqo/urGUHxTCvoar/ADa3nnE4TWmo8Poux4Yq3FaikhmqWxvLKOklkYHOY913yPe0n8C03aNjpGnYvcmD1TCBs3vwz816dQzNIFtVOclcgqoDEuEyyokeXNkooW32Rx0oLR5ZHyP87is7zY8KtiUUjW4rR09VASA6SlDqeoaOVwa574pCPgWiv8JZnYDVtF7A911kdh0wF7XVoqx/OF+IVvilT6l66ebDOfR4xRxV1DKJqeYGzrWc1wNnRyMO1kjDsc09e0EE9zOF+IVvilT6l6gw0tfsuFjdRwBDrFfz5LhclcLtDdAr4p68Ep7oYv4nB65ylFpy6OdflJQ0dNQSUzJKerM7+yXyRtLDDJHZpjimJdrOGwgC19qi5wSnuhi/idP65ylPpwaR1bk1Q0dTQxU0slRV8Q8VLZHtDBDJJdojkiOtdoFy4i19i57Xe0/aX+TbaytfTRVqo2ve/wAGuVvJQs+5XZR/GMJ/Oar/ACSfcrso/jGE/nNT/kl2furGUHxTCvoar/NoeFYyg+KYV9DVf5tTF8W4N+S3v9Z3KxvMHkHNheDYdh9QY3TUlLHDI6IudGXNG3ULmscW8xLWnoWwVgOYfL+XFMHw7EJ2sZNV0sc0jYw4Rte4bQwOc5wbzAuJ6Ss8LlQZdrbdt63N+arT77Rvrdfa+SVGbSF0+MIwJ76ZmtiFc24dT07mhkLuQVE5u1judjGyPHK1uy8OsrOFPx6Zx7FpqCkj96DHJUSgcxkfI1h6xE1SdPhNTUDaa2w4nL+q24qKWQXAy78la7rLlpVPDOEoypBv2RSnoNJHb0WPpWx8geFexONzRiWH0tTHsDnUxkppQOV1numjeeZtox0jetp+A1bRcAHkfuszsOmAyAKtCRahzEaUeE5QxF1DPqztF5aSYCOpi6SzWcHs/wDUjc9vOQdi241ygpI3RuLXix4FRrmlhs4WK+kXBKj1pCab2D5PuMEjnVlcB+KU2qXMuLjjpCdSK++3bPt7w3X2KJ8rtiMXK+sY552Wi5UhSVwHKq3K/hV8alcew6KgpGHdxglqZR06+vCw9XFLC3cJRlTf8YpR0diR2/X6VOtwGqIuQB4/ZSIw2Yi+SuHuuVVPkZwqeNwuHZlJQ1kfvgxslLKep4fLGPoVNfR701sHyhIhhe6lrrXNHU6oe+w2mB4JZMBvs2zwNpYFpVOF1NONp7cuIz/9LBLRyxi5GXFSBXy4IHLUudbSnwTBahtLiVaKed8QmaziZ5Lxuc9jXa0Ub2i7mOFib7N25RrI3SHZYCT3ZrVa0uNmi5VMmfH3axf5zrvaZVhCynOpjcdTieI1ELtaGeuq5onWI1o5J5HsdZwBF2kGxAIWLLssIIY0HgPRXpnwjkpocFV7v1fzZL7RTK1tU4cH/niw7BMYqKrEp+x4H0EkLX8XJJeQzQODbRNe4XaxxuRbZ1K1vNTniw/G6d9Vhs/ZEDJnQOfxckdpWtY9zdWVjHGzZGG4Fttr7CueY7E/3kyWOzYZ7vNVjEWO9qXWyyzUDc/PB047ieM4jiFPPhrYaupfNGJZ6hsga61g9raR7Q7Zts5w6VgX3K7KP4xhP5zVf5JbGz88I5jWF4ziOH09LhzoaSpfDG6WKodIWttteW1LGkk33NasC+6sZQfFMK+hqv8ANqXgOKezbsBtrC3K2S3o/e9kbNrWWytGHg/MbwbHKHEqqbDnQUzpS9sM075TrwyRjVa6ljae2cL3eNl+pWIMVe2jJwhGMYzjdFhtVTYeyCpdKHugjnbI3UhkkGqX1Ejd7ADdp2E7lYSCq3ivvHtR7zbatu4ZqKrPa7Y9rrbcvtF0cXxiKCJ800jIoo2l8kkjgxjGjaXOc4gADnJUIM83CmUNM98GEUhr3NJaaqZxhpr88bQHSytvyniQd4JG1aVNSS1J2Ym39PNa8UL5TZgup1ly41lUNi3CbZTyOux1DAORkdLcDyyySOPnX64HwnmU0TgZOwKhvK2SmLNnQ6GWMg9d+pS/7Aq7Xy81vfs2buVu6KE+Y/hPMNr3sp8UgOGTPIa2fX46jc47BrP1WyQ353tcwcsgU0aWsa9rXsc17XAOa5pDmuaRcEEXBBG0EbFDVFNLTu2ZWkFaEsL4jZ4sv3XCKujSH4RTGsJxrEMOp6bDnw0k4jjdLFUOkLeLY/ty2pY0m7juaNnpyUtJJVOLIhna6+wwOmOyxWMLhVR/dWMoPimFfQ1P+bW0NGfhCcZxnG6HDammw9kFS6Vr3QxTtkAZBJINUvqXtHbMAN2HZfyb8mDVUbC9wFgL6rafQStaXG1h3qwy641lCfSw4RFmEVEmHYVDFV1kJ1aieUk01O/liDWOa6aVu5412NYdl3EOa2KkfCV5UB2tx1GRe+oaRmr1bHB1v6V+lfIMGqZ2bYAAPHJfI6GV7doCyuEBXKgPo9cJ7FVzx0mN08VG6UtYytgLuxtdxsBNE8ufC07BxgkkaDv1B2wnpDMHAEEEEXBG0EHlB5lH1NLLTO2ZRZa0sL4jZ4X6IiLUWBERERUvcIP32Yn/AFb2aJRyUjeEH77MT/q3s0Sjkuu4f2aP9I9Fd6bqm8kRezQ5NPkpKiqbctp5aeOQAbhUCazieQB0Qb1vXjLfBB0WxdWA8Enj9qrGKUu7uClna35J8sb3f+6wHyKcmkblD2LgOLz8seH1Vut0TmDy3cFWjwYWPcTlNxfJU4fVQ+VroZx5fvJ85U4uENyg4jJSvANjO+mpxznXnYXAf0Gu8gK55icF8Ra38xb9lWauO9UBxsqZ1wi9LAcAkqXuZELlkM07t+yOCN0sh2A7mtK6FcAXKs2i81ERel9V32hT3q4L4oPWPVYWnt32Yt4cHssKs90Ke9XBfFB6x6rC09u+zFvDg9lhVEwft8v8X8wVdou0v8fVR+W09FjvkwP5zo/XMWrFtPRY75MD+c6P1zFcqrqX/pPopyb4Hcj6K9l+5fz9Z0fdPEfH6v2iRf0Cu3L+frOj7p4j4/V+0SKmdG/jk5BQWFfE7kFjCmPwV/fJP81VPtNGocKY/BX98k/zVU+0Uas+Kdkk5KXrOpdyUwOEo71arxqj9cFTwrh+Eo71arxqj9cFTwo3o92Y/qPoFqYZ1J5/ZFbrwY/euPHqv/DVRSt14MfvXb49V/4a9dIOzD9Q9CmJ9UOY+qqyzpe6eI+P1ntEixdSKz6aImUNLLimJT4eWUTKmpqHTcfTOHEvncWv1BKZLEOabamtt3KOym6aVkjAWEGwGnJSUT2vaNk3XCItt5tNFLH8YpRWYdQGopi98Yk4+nju9ltcaskrH7L79WyySysjbtSEAd+S9Pe1gu42Vr2dLvLrf/t2b/8AHlUjK8HPFQPiyPxGKRurJFgFQx7bg2eyhc1wuNhsQRcEhUfKsdHj+GQj8yiMM0fzRWVcEh+K434xR+rnVaqsq4JD8Vxv5ej9XOt/HOxu8PULYxDqT4LqcLl+DwPw6/8ARpVXArHuFy/B4H4df+jSquFME7GzmfVfcP6geKIisW0ReD6wvEMHhxLFuPlmrQZIIopTCyCC5bGe02vkkA4wlx1Q0sbq3Di6QrKyOkZtycbZLYnnZC3aeq6UW09JzM4MBxqsw1j3SQxFkkEj7a7oZmNkZr2ABcy5YSAA4tJsL2WrFtRSNlYHt0Iv5rOx4e0OGhU1+C/zyvpMVlwmRx7HxFjnxNJ2Nq4W6wIHJxsIc13OWM8lmucA/wC4VvilT6l6o20eMoTSY7hFQP8Al4hS3227V8rWOHUWuIPQryc4B/3Ct8UqfUvVAx2EMqWvH/L1H9hVrEYw2UOG9fz6FcLkrhdCGgVnU9OCU90MX8Tp/XOW0eFm9yMM+cT7LMtXcEp7oYv4nT+ucto8LN7kYZ84n2WZUab/AHdvMeir0nbR4eiq6REV6KsV1eVoe96+B+IQ/UVrzT80j34FhbYKV+piGIl8UDge2ghYBx845nDWZGzmc/WHcELYWh73sYJ83w/UVXDwlOXDqrKaWC51KCngp2t5A97eyJHDpdxzQfAHMuaUNMKiuc12gJJ8D97KpU8QlqCDoCSorzTuc4ucS5ziXOc4klxJuSSdpJO0k7SvhFn2YjNW/G8WosMa8xipltJIBcxxMa6SVwG64Y06t9msRddHe9sbS46AK1FwYLnRYCitHzx8GzgkWE1UlB2THW01PJNHLJOZRM6FheWSxkBgEgaReNrC1xBGwapq4WnRV8VW0mO+XH+ysEFSycEt3cV7WR2WVTh9TFWUcz4KiBwfHIw2II5DyOa4bHNcC1wJBBV2ui1n1ZlDhEFeA1k4vBVxt3R1MYGvq8zHgtlYDchrwDcgqjBWFcEplK/jsYo7/ezHTVIHM8OfE4/0mlg/oqIx6lbJB7W34m2z7tLLSxGEOj294UtdMHPk7AMDqauIjsqQimpL7bTy3AfY7DxTA+Wx2HUA5VSTiWJSTSPlle6SSRznve8lz3vcbuc5x2kkm5JVhnC2ZSn/AINRi+qeyql23YSOLibcdAc+3Nc86rqX3AacMp/ab3H5DK31X3DYw2La3lEX70VI6R7I2C7nuaxo53OIAHlJVoFZwXOFHCeLZNUf6VEGuKoyfeXVOprahgtqiAv7XZ98DbHWJBvKVmIRUhaJN/DNbc1SyG23vVXC7OHYjJDIyWJ745Y3B8cjHFr2OabhzXCxBBFwQV8VdKWPcxws5jnMcOZzSQR5CF+KkciO5bORCue0HNIt2UGE3qCDX0TmwVdtnGAtvDUW5ONaHBw3a7H2sLBQr4VHvip/mun9oq12eCqykfHjtXSg/e6nDnvcPy6eaIsPkbLIPKtmaf8Aou45jWMwVeG0RqYG0EULniaCO0jJqhzm6ssrHdy9puARt6CqNFHHR4kQSGtsSL5a7lX2NbBVnOwtfzVcCLvY3g0lNNLTzN1JoJHwysuDqSRuLHtu0lp1XAi7SQbbCV0Vegb5hWFFa9wVfe9VfOs/s1Iq081uaHEcaqH0uG05qZ2RGZzBJFHaNrmtLryvY09s9osDfbu3q13g/c0WIYLg1RS4lTmmnfiE0zWGSKS8ToKZjXa0T3t2uY4WJvs3bQqtj8rPYez2htXGV8/JQ+JPb7PZvnlkq0dMDvnxvx+X7Fp5bg0v++fG/H5vsWn1P0nUR/pHoFJQdW3kPRSC0CO+zCfDn9lmV1DnKlfQI77MJ8Of2WZWv6SOcB2F4Fidcw6skNJJxJPJNJ96hPkke0qj48wvq2tG8AfMqv4k0umAHAeqrk4QPSskxStlwmjlLcNo5DHMWO2VdSw2e5xG+KJwLWN3Fwc8+8tDorl7ySSd5Nz1lfKu9JTMp4hG0afPvVghiETQ0IimboF6HNFlBFV1+JmV1NDKKeGGJ5i4yTUD5HyPb2+qwOYGtaW3cTc2Fjj+nhon02Tk9JPh7pTRVolbxcrtcwTRah1RJYFzJGvu0Ou4Fj+2ItbWGJQmo92udr5cbLGKpntfZb1FJT14OTSvlgqY8Ar5S+mn2YfJISTBMNvY+sSfvUo7hvvJBqjZJsgUu5g+KvglinicWywyMljcN7XxuD2nyEArLW0rKmIscOXcdy9TwtlYWlf0QhUgabHfVjXjQ9TErmc2eV4r8Ooa0bqqlgntzGSNryPISQqZtNnvqxrxsepiVN6PgtqXA8D6hQWGC0rgeH1WkVm2ZvOS/CMQixCNutLBHUiL8mWWmliicehkkjXH8kHqOErJ82GQz8TxGiw+M6rqypigDrX1BI4Bz7cuo27rXG7kV7lDTG7b+G2fJWJ9tk7Wm9Y7V1TpHue9xc97i97nElznON3OJO0lxJJJ3r8laxnE4M/Axhc7aIVDK+KBzoah87n8bMxhIEsZHF6sjhZ3FsYW3uLWsaqCFpUNdFVgmPdxFlgp6hkwOxuXCuB4OPO9JieAiCd5fUYbJ2IXO2udDqh9OSd51WExXO08Xt23VPysI4I6rdx+NR37XiqN9uTW1p238oWjjsQfSl29pB+i1sRYHQkncrJkRFzNVJERERUvcIP32Yn/AFb2aJRyUjeEH77MT/q3s0Sjkuu4f2aP9I9Fd6bqm8lITMFkp2Xk9lcB3UNLh9S3Zf8AAVT5Hf3GuUe1OHg2snhV02VNKd1RhscPP+FbVMvbnBN1CKogLXOadhaSCOYg2Kx00l6iZnAg+bR9l5ifeSRvL0W59C7H+xsqMHkLtVrqriXcxE8ckNvKXjyqcXCu5QamC0FN/L4gJPJBBLfyXlHoVa2bXG+xsRoKj+QraWb6Kdj/AE2U2eFlyj16jBacO2Np6moLflnxMY49YicB5VG1kO1iELu4/K5WpPHepjPP5KAS3rosZM8cMoKgtu2kycxNwPwZJWNiZ52Ol8y0Upm6GeS9smctK0jusOdStPgU88r7f24+XmUpiEmxATxIHmQFu1LtlniB81DJERSS2Vd9oU96uC+KD1j1WFp7d9mLeHB7LCrPdCnvVwXxQeseqwtPbvsxbw4PZYVRMH7fL/F/MFXaLtL/AB9VH5bT0WO+TA/nOj9cxasW09FjvkwP5zo/XMVyqupf+k+inJvgdyPor2Xbl/P1nR908R8fq/aJF/QK5fz9Z0fdPEfHqv2iRUzo38cnIKCwr4ncgsYUx+Cv75J/mqp9oo1DhTH4K/vkn+aqn2ijVoxTsknJS9Z1LuSmBwlHerVeNUfrgqeFcPwlHerVeNUfrgqeFGdHuzH9R9AtTDOpPP7Ird+DD72G+P1f+GqiCreODC72G+PVf+GvvSHso/UPqmJ9UOf3WxtNYfxWxnxQ+sYqQld9pr962M+KH1jFSCVh6OdS/wDV9F4wvq3c0Ct74MkfxXj8eq/0mKoQK3vgye9ePx6r/SasvSHso/UPQr3ifVDmtxaTw/i5jvzTX+zSKiFXv6T3e5jvzTX+zSqiBa3Rvqn8/osWFfA7misq4JD8Vxv5ej9XOq1VZVwSH4rjfy9H6udSWOdjd4eoW1iHUnwXT4XL8Hgfh1/6NKq4VY9wuX4PA/Dr/wBGlVcK+4J2NnM+q+4f1DfFFe/oxxAZPYMALD/RtJsHyLVRAVfFoz972DfNtJ6lqjeknVs5/RamK/A3n9FWhwnMYGU7tm+gpCen8KPqACiYpa8J53zn5vpPrlUSlO4Z2WP9IUjSdSzksgzfTFtfQuG9tZTEdYmYQr68v/c+t8TqfUvVCGQv49R+NU/rmK+/L/8AEK3xOo9S9VjpD1sXj6hROJ/Gz++C/n1K4XJXCvA0CsKnpwSnuhi/idP65y2jws3uRhnzifZZlq7glPdDF/E6f1zltHhZvcjDPnE+yzKjTf7u3mPRV6Tto8PRVdIiK9FWFXk6H3evgniEP2qpDSyxEy5S408kn/f5mi/NGeLA8gaAFbfoe97GCeIQ/aqgdJjvhxr5yq/XOVIwUf6ybx/mVeoOvf4+q1opOcHGP410fyNX6hyjGpOcHH310XyNX6hys+I9mk/SfRS9V1TuRVueXP4lWeK1Hqnr+fEr+hjKfD3S01REy2tJBLG25sNZ8bmi55Bc71Uj9zRyp/kaP87Z+yqjgNTDAH+0cBe2vioXDZWRh22baKKinhwSvuli3iMPr1rr7mhlT/I0f52z9lSm0BNFPF8nq2vmxKOBkdRSxxRmKdspL2y6xBAAsNXlUvildTyUr2MeCTbLxW9WVEb4XNa4XXd07tEjFcpKugmw91KG01PLFIKiV8R1nyB4LdWKQEWve5G1Rf8AuXGU3w8M/Opf8srbS1cEqpwYxUQRiNlrDuULFXSRtDW2sFVNkvwZGUcVTTyyPw0MinhkeRUyk6rJGudYdjC5sDYXG1Wrs3eRaqzp6UuA4NrCtxCFszRfsaI8dUHo4qPWc2/O/VHSoi5zuFebZ0eEYcSdoFRXPsOsU8JueQ9tM3pHPmkbW4kWks032sFkcJ6sgkaeCgNnC90K7xyp9c9Y+u3iuJOmllmfbXlkfI6wsNaRxc6w5BcnZc2XUXSmCzQFamiwCl3wXnfM75tqvWU6twLVUfwXnfM75tqvWU6txcub4/2rwH1VWxHrvAKgrPj7tYv8513tUqwhZvny92sX+c672qVYQuiwdW3kPRWiP4RyU0OCrH/H6v5sl9opla3ZVScFT7v1fzZL7RTK1xc4x3tZ5BVXEeuPIKjPS/758b8fm+xafW4NL/vnxvx+b7Fp9dDpOoj/AEj0Vng6tvIKQWgR32YT4c/ssysR4RiUjJLEAPfSUIPV2bAfrAVd2gR32YT4c/s0ysP4RrvTr/laH2yFVLE/9xi/h/mULVdqZ4eqpvXBRCrtuVgVs/Baj+LkvzlUeqgWMcLOP+FYX84P9mkWUcFt3uS/OVR6uBYxws/uVhfzg/2aRc7j/wB1/iPoqu3tniVV8iIuiq0K7rQkr3SZK4M528UpZ5IppY2/3WjqVWemx31Y142PUxK0TQT708G+Rm9qnVXWmx31Y142PUxKjYRlXy/xfzKv0I/1D/H1Wklv7QPhDsq8IvySznyilnI9K0CpA6BXfZhPyk/ss6tVd2aT9J9FM1HVu5FXR14+9v8AAd9RX88Vd3b/AA3fWV/Q7X/g3+A79Er+eOv7t/hu+sqrdGtZPD6qGwn/AJeC66sC4I/8axrxej9ZOq/VYFwR/wCNY14vR+snU9jPZH+HqFIV/UO/verLERFyxU9ERERUvcIP32Yn/VvZolHJSN4QfvsxP+rezRKOS67h/Zo/0j0V3puqbyVgnBIj/eMa+Qo/WTqHukJkx2FjmLU3JFX1IbYW7V0rnsHka4KYXBI/jGNfIUfrJ1prhHcluxsqap4AAq4KaqHTdhhcesvgdfpURTybOJys4tHyAWjG61W9vEellGJjrEEbxtCkRpwZc9n4jh0odramBYY0m9+3kjfUP8t5reRR1X71lc+QgvcXFrWsBJvZjGhrGjoa0ADoCn3wh0jZOF/nZSZZdwdwv81+Csl0ZcmOIzbY1Ly1kWLVHkZAKYDq/wB3v1kqtpXA4fk12Jm5dDax/wBXZpT4VRTvnd5bybVB43JssjbxePko+vdYMHFwVPyIism5Siu+0Ke9XBfFB6x6rC09u+zFvDg9lhVnuhT3q4L4oPWPVYWnt32Yt4cHssKomD9vl/i/mCrtF2l/j6qPy2nosd8mB/OdH65i1Ytp6LHfJgfznR+uYrnU9S/9J9FOTfA7kfRXsOX8+ecGQmvridpNZUk9Zmev6Cyv58svPx6t8bqfXPVM6N/FJyHqVB4Vq7wXhKY/BX98k/zVU+0Uahwpj8Ff3yT/ADVU+0Uas+Kdkk5KWrOpdyUwOEo71arxqj9cFTwrh+Eo71arxqj9cFTwozo92Y/qPoFqYZ1J5/ZCreODC72G+PVf+GqhyreODC72G+PVf+GvXSDsv8Q+qYn1Q5/dbH01+9bGfFD6xipBKu+01+9bGfFD6xipBKwdHOod+r6LxhfVnmgVvfBk968fj1X+k1VCBW98GT3rx+PVf6TVl6Q9lH6h6Fe8T6oc/utx6T3e5jvzTX+zSqiBXv6T3e5jvzTX+zSqiBa3Rvqn8/osWFfA7misq4JD8Vxv5ej9XOq1VZVwSH4rjfy9H6udSWOdjd4eoW1iHUnwXT4XL8Hgfh1/6NKq4VY9wuX4PA/Dr/0aVVwr7gnY2cz6r7h/UN8UKvi0Z+97Bvm2k9S1UOlXxaM/e9g3zbSepao3pJ1bOf0WpivwN5/RVpcJ53zn5vpPrlUSlLXhPO+c/N9J9cqiUp3DOyx8gpGk6lnIL3Mhfx6j8ap/XMV9+X/4hW+J1HqXqhDIX8eo/G6f1zFffl/+IVvidR6l6rHSLrIvH1CicT+Nn98F/PqVwuVwrwNArCp6cEp7oYv4nT+ucto8LN7kYZ84n2WZau4JT3QxfxOn9c5bR4Wb3Iwz5xPssyo03+7t5j0Vek7aPD0VXSIivRVhV5Oh73sYJ4hD9RVQOkv3w41841frnK37Q972ME8Qh+oqoHSX74ca+cav1zlSME7ZN4+qr2H9fJ4+q1opOcHH310XyNX6hyjGpOcHH310XyNX6hys+Idlk/SfRTFV1TuRVyAXC6uK4iIYpJXX1YmPkdbfqsaXG3TYKHX3VHAPi2JfQw/v1yuGllnv7NpNuCp0cL5PgF1M9GqGP3VLJ/4tiX0MH79ba0edMDDcpZqiChiqo300TZX9kRxtaWudqDVLJH7b8htsWWShqI2l72EAbyvbqaVou5pAW2stcsqfD6WesqpRFT08bpJXu5GtG4AbS4mzWtFy5xAAJKqV0jtPzFsYlkhoppMOw65ayOFxjqJmbtaomade7v5KNzWAGx17XW+uFazrvZHQYPG4hs2tWVQB7prHakDHDm1w+S3Oxp5Aq31bcEw1hjFRILk6A7hxU1h9K3Z9o4XO5cySEkkkknaSTckneSd9+lbkzB6J2L5ROLqOFsdK06r6yoJZA0je1hALpX/ksabcpatW5LYG6qqqamabOqJ4YGnmdNI2MHyF11fxkNkXT4dR09FSxiKCnibHGxvM0bXHnc43c5x2ucSTvUhi+JOo2tbGPxH5BbVbVGAAN1KoAxvCjBNNA4guhlkiJG4mN5YSOgkXXSWQZwvdCu8cqfXPWPqfYbtBKkWm4BUu+C875nfNtV6ynVuLlUdwXnfM75tqvWU6txcub4/2rwH1VWxHrvAKgrPl7tYv8513tUqwhZvny92sX+c672qVYQuiwdW3kPRWhnwjkpocFT7v1fzZL7RTK1xVR8FT7v1fzZL7RTK1xc4xztZ5BVXEeuPgqM9L/vnxvx+b7Fp9bg0v++fG/H5vsWn10Ok6iP8ASPRWeDq28gpBaBHfZhPhz+zTKw/hGu9Ov+VofbIVXhoEd9mE+HP7NMrD+Ea706/5Wh9shVTxL/cYv4fVQtV2pnh6qm5CiFXXcrAraOC273JfnKo9XAsY4Wf3Kwv5wf7NIsn4Lbvcl+cqj1cCxjhZ/crC/nB/s0i53H/uv8R9Cqu3tniVV8iIuiq0K7LQT708G+Rm9qnVXWmx31Y142PUxK0XQT708G+Rm9qnVXWmx31Y142PUxKj4R2+X+L+ZQFD2h/j6rSSkDoFd9mE/KT+yzqPykDoFd9mE/KT+yzq01/ZpP0n0UvUdU7kVdHX/g3+A79Er+eOv7t/hu+sr+hyv/Bv8B36JX88df3b/Dd9ZVW6NayeH1UPhP8Az8PquurAuCP/ABrGvF6P1k6r9VgXBH/jWNeL0frJ1PYz2R/h6hSFf1Dv73qyxERcsVPREREVL3CD99mJ/wBW9miUclI3hB++zE/6t7NEo5LruH9mj/SPRXem6pvJWC8Eh+MY18jR+snX4cLVktq1eEVgaLSwVFM53LeF7JGg+SZxHl6V+/BIfjGNfI0frJ1tnhUcleOwCmqQ27qTEIi4/Bimilid55eJVUkk2MXvxsPNqhnO2a35eYVUKIivasS9DJ/CjPPBA0XdNNHE0c5keGAeUkK7zSCwtsGSuKwtFmw4NURNHMGUxaB5AFUdomZNdl5SYPCRcdmxSu8GC85Pk4tXAaUHe5jfzZWeoeqTjsl6iFnDPzNvooDEHf5sbfH5qiRERXZT6u+0Ke9XBfFB6x6rC09u+zFvDg9lhVnuhT3q4L4oPWPVY2n5CW5WYrfldTu8hpYbKh4P2+X+L+YKu0XaX+Pqo9Laeix3yYH850frmLVi2Zoy1QZlFgbnbv8AStCCebWqI2j0kX6Fc6nqX/pPop2X4Hcj6K94r+fLLz8erfG6n1z1/QPW1QYxzydjWucepoJPoC/nvyorxLU1Mrd0k80g6nyOcPQVTujY/FJ4fVQeFau8F5amPwV/fJP81VPtFGocKY/BX98k/wA1VPtFGrNinZJOSlazqXclMDhKO9Wq8ao/XBU8K4fhKO9Wq8ao/XBU8KM6PdmP6j6BamGdSef2Qq3jgwu9hvj1X/hqocq3jgwu9hvj1X/hr10g7L/EPqmJ9UOf3Wx9NfvWxnxQ+sYqQSrvtNfvWxnxQ+sYqQSsHRzqHfq+gXjC+rPNAre+DJ714/Hqv9JqqECt74Mg/wAVo/Hqv9Jiy9IezD9Q9CsmJ9T4j6rcek93uY7801/s0qogV7+k93uY7801/s0qogWt0b6p/P6LDhXwO5orKuCQ/Fcb+Xo/VzqtVWVcEh+K438vR+rnUljnY3eHqFtYh1J8F0+Fy/B4H4df+jSquFWPcLl+DwPw6/8ARpVXCvuCdjZzPqvuH9Q3xQq+HRnP8XsG+baT1LVQ8r1NFDFWzZN4K9pBH+j6duw3s6NgjcOsOaQekKM6SdUzn9FqYqPwN5/RVwcJ53zn5vpPrlUSlKnhLMSbJlTO0EEw0lJG63IeLMlj02kHksorKew3ssf6QpKl6lnIL3838RdX0LRvdWUwHWZmAK+zL/8AEK3xOp9S9URZoaQyYthjACS7EKMADf8AjEavey//ABCt8TqfUvVY6Qn/ADYhz9QojE/jYv580XJXCvA0VhU9OCU90MX8Tp/XOW0eFm9yMM+cT7LMtXcEp7oYv4nT+ucto8LN7kYZ84n2WZUab/d28x6KvSdtHh6KrpERXoqwq8nQ+72ME8Qh+1VA6THfDjXzlV+ucrftD4fxYwT5vh+1VL6X+DmDKbGoyLf77JIB+TMGzNPlbID5VSMFP+slHP8AmVeoOvf4+q08pOcHH310XyNX6hyjGpI8HlibIsq8P13BvGNqY235Xup36rfLYjrVnxDOmk/SfRTFV1TuRVv+XP4lWeK1Hqnr+fAr+hLLGvZFSVUkhAjjp5nvJ3BjY3F1/ICv57nnaesqtdG9JPD6qJwrR/gvlTw4JX3SxbxKH16gep48Eq3/AIjix/8AoofX7PqU5jHY3+HqFJVvUOWuuEwxfjMqZmclPSUkQ/pMMx9aopqTvCPUpblXWk7nwUb29XY0bPraQoxLYw4AUsdvyhe6UWhbyWa5kvdrCPnOg9qiV+qoCzR17YsWwuV5DWR4jRPe47AGsqYnOJPMACVf06UapNxaxN+S1t6qnSQf5kfI+qhsV+Jq/n4zhe6Fd45U+uesfXs5Z1gkrKuRvcvqZ3jqdK8j0FeMrxGPwDkrC3QKXfBed8zvm2q9ZTq3FyqP4Lvvmd821XrKdW4OXOMf7V4D6qrYj13gFQVny92sX+c672qVYQs3z5e7WL/Odd7VKsIXRYOrbyHorQz4RyU0OCp936v5sl9opla4qo+Cp936v5sl9opla2ucY52s8gqriPXHwVGml/3z434/N9i0+twaX/fPjfj8v2LT66HSdRH+keis8HVt5BSC0CO+zCfDn9mmVh/CN96df8rQ+2QqvDQI77MJ8Of2WZWMcIbQOkySxPVBJYaOSw+Cysg1j5G3PkVSxM2xGL+H+ZQtXlVM8PVUyoURXdWBW0cFt3uS/OVR6uBYxws/uVhfzg/2aRZDwWNW05PTtBBczEp9Yc2tFARfrCxfhaa1ow3Co9Ya7q2V4bylrIC1zrczS9gPhBc7jH/5X+I+hVXb23xKrFREXRFaFdjoJn+KeDfIze1TqrvTY76sa8bHqYla1oc4RxGTGCxkWJoo5PpnOl5fDVU2mx31Y142PUxKjYOb10p/V/Mq9QG9Q/x9VpFSB0Cu+zCflJ/ZZ1H5SB0Cu+zCflJ/ZZ1aq/s0n6T6KZqOqdyKujr/AMG/wHfolfzx1/dv8N31lf0OV/4N/gO/RK/njr+7f4bvrKq3RrWTw+qh8J/5+H1XXVgXBH/jWNeL0frJ1X6rAuCP/Gsa8Xo/WTqexnsj/D1CkK/qHf3vVliIi5YqeiIiIqXuEH77MT/q3s0SjkpG8IP32Yn/AFb2aJRyXXcP7NH+keiu9N1TeSsF4JD8Yxr5Gj9ZOpc6amSnZmTGLxAazmUxqGD8qme2b6mFRG4JD8Yxr5Gj9ZOrEMscFFTSVNO7a2enmhcOcSxuYfQ5ULFH7GIF3AtPyCrlY7ZqdrgQv56kXaxOgdFJJE4WdG97HA7wWOLSD0ghdVdMBuLq1jNS04MjJrj8phKRspKGpnvbZrOMcDR1kTOPkKso0oe9zG/mys9Q9Qx4JHJgl+M1hAsG0tMw8tyZZXjzCNTP0ou9zG/mys9Q9c5xWTbrx3bI9D9VV6x21UjusqIkRF0fcrSrvtCnvVwXxQeseq+OE5ybMOUpm1bNq6Kmlaecx60LvKOLCsH0Ke9XBfFB6x61VwkGj7LiuGxV9HGZavDddzo2N1pJaV4BlDANrnRFrZQ0AkgPABJAPNaGoEOIOLtC5w8z97Kq08gZUknQkhVLL9qOsdG9sjHFj2Oa9jmmzmvaQ5rmkbi0gEHnX5ELhdKyIVpyKk5lPwiGUdVQPoHyUzBLEYZKmOAtqXxluq/tuMMbXPbcF7I2nabap2qMa23ow5hp8ocVgo2NcKZrhLWzAbIaZhu/ttwkltxcY36zr2s1xGucqqBsVVUxM2MiqJo2jmayRzW+gBaFO2CJ7oogAcibd6142xscWMFjqV5SmPwV/fJP81VPtFGocKY/BX98k/zVU+0UaxYp2STkvFZ1LuSmBwlHerVeNUfrgqeFcPwlHerVeNUfrgqeFGdHuzH9R9AtTDOpPP7IreODC72G+PVf+Gqh1bxwYXew3x+r/wANfekHZR+oehTE+qHP7rZemjCXZLY0ALkUbneRrmucfIASqPV/QPnMyPbiGHVtC/Y2rpZ6cnm42NzL+Qm6oOyuyUnoaqejqo3RVFNK6KVjt7XsNjbnae6a4bHNIIuCFp9HJW7D4997/JYcLeNlzd97ryFJfRz06a/Jygkw+Gkp6mJ0z5o3Suka6N0gAcO02OaS0OtsIN9u3ZGhchWmop452bEguFMSRtkGy4XCvGz4Ys6oySxSdwDXT4DVSuA3AyUTnkDoBNhfkVHCu5zpd5Vb/wDbs3/48qkZVvo+LNkH/ZRWGaPHeisq4JD8Vxv5ej9XOq1VZVwSH4rjfy9H6udb+Odjd4eoWxiHUnwXT4XL8Hgfh1/6NKq4VY9wuX4PA/Dr/wBGlVcK+4J2NnM+q+4f1DfFFv8AzJabmN4DRmgpHU8tMHOfGypidIYXP2vEbmSRkNc7ttR2sA65FtY30AuxWUEkZAkY9hc1rwHtLSWPGsxwBAu1w2hw2EbQVLTQxzN2JWgjvW69jXjZcLherlxlrUYjV1FdVv4ypqZDJK+wAJNgAGjY1rWgNa0bmgDkXhIuVla0NFhovYAAsNFuzQtyVdWZT4QxouIqkVL9lwGUwMxJ6CWht+chXP5fn/cK3xOp9S9Q24NnRimoIZMarozFUVcfF0kTxZ8dK4h7pXA7WunIbqtNiI2g+/Uys4P4hW+KVPqXrm2MVTZ6oBuYbkqpXSiSYW0GS/nzK4XJXC6UNArYp6cEp7oYv4nT+ucto8LN7kYZ84n2WZau4JT3QxfxOn9c5bR4Wb3Iwz5xPssyo03+7t5j0Vek7aPD0VXSIivRVhV5Oh73r4J4hD9qgbwpOa91NjFPibG/ecQgDHuA2CpprMdrHnfC6LVvv1H79U2nlofd6+CfN8P1FexpB5j6bKDDZsPqO1LvvlPMBd0FQ0Hi5W8+8tc241mOcOVcup6v3WtdIdLkHkSVUIpvYzlx0ubqh5d/AsclpZoqiCR0U0EjZYpGmzmPYQ5rh1EdRWZZ5sxWJYDVOpsQp3R7TxU7QTBOzbZ8UltV1xtLCQ9m5zWrXy6Yx7JWXaQQVbAQ8XGYUkM5Wn3lBilA/D55KaKKVgZPJTwmOaZlrOa5xkc1rX++EbW3BI2AkKN6IvENPHALRtAHcvjI2xizBZFZ/wAFRmyfBh9dikjC3s2ZkEBPvoabW1nj8kzPc3rjPQomaLOhpiGUM0c0jH0uFtcDLVvaWmZoO2OlDh98c7cZAOLZvJJs03E5J5LQUVNBSUsbYqeniZFFG3c1jAAB0nZck3JNyd6qmPYgzY93Ybk623d3NQ2I1Ldn2bdd6rG4VjJR0eM0VZbtKqhEd7bNenlfcE8+rKwqEaud06dH1+PYM4UzNeuon9k0rRYGXZaaAE7Lyx9yCbGRrNypoq6R0b3Me1zHscWvY9pa5rmmzmuaQC1wIIIIBCkcDqWyUwZvblZbOHyh8QbvC/IFSUqOEGyjdhpw0zQaroOxzV8UeyzEW6h++a+prlna8Zxety31u2Ualt7Rh0fqnKHE4aWNjxSxvbJXTgHUhpwbuGtu4yUAxxtFyXHWtqseRKVbIC3bnAIbnmtyZseztSDRaiJXCyfOhhbIMTxCCJobHDW1UUbRuaxk8jWtHQGgBYwt1rg4AhZ2m4BCl5wXffM75tq/WU6tvcVUfwXffM75tq/WU6tysua492r+EfVVTEuu8AqDc/NO5mOYw1wsRidds66mQj0EFYIpOcIVmmmw7KKqqCwilxI9lU8lu0Ly1oqI77tdkoLi3eGyMPKoxq/0cgkgY5vAKywPD4wRwW0NHfP5U5OYh2fTRRTOdC+CSKUuDXxvLXd00gtcHMaQdvKLbVbJoeaQk+UuGT19RTxUzo62WmbHC57m6jIoJA4l+3WvKRs2WAVJZVr3BWd71V86z+zUir+PU0fsvbW/FcC6jMSibsbds8hdQB0v++fG/H5vsWn1uDS/758b8fm+xafVipOoj/SPRScHVt5BSC0CO+zCfDn9lmVvWd/IYYnhdfh5IHZdJNA0n3r3sIjd/Rfqu8iqF0CO+zCfDn9lmV1GqqN0gcW1TXDUNHqVX8SNpgRwH1X88OL4VJBLLBMwxywyPikY4WLXscWuaRzgghdNWVaeuhFNWSSY3g8RlqHAGuomDt5tUW7Ip2+/l1QNeIds+123ddrq26ukfG5zHtcx7CWuY9pa5rhsLXNNi0g7wQCrjQ1sdVGHNOe8bwVOU9Q2ZoI8VtTMJpO4pk4+Y0D4nR1AbxsE7DJC5zb6r7NcxzXtBI1muFwbEGwt5+fPSCxLKGpZU4jIwmJhZDFE0shia4gu1Glzjd5ALnOc4nVaL2AA1qi2RTRCT2oaNrjvWb2TNrbtnxRe/kDkdNiFbS0MDS6WqnjhYAL213AF3Uxt3E8jQSvKwvCpZ5GRQxvllkcGsjjaXve47mta0FzieYBWjaBmhZJhH/FsVYG4g9mrTU5IcaON4s9zyCRx8jTq2H4Nlxcl7g3UxCuZSxFxP4tw4/0WCqnbCwknPcFMnJbAGUlNT00YtHTwxQsA+DExrB6AqVNNjvqxrxoepiV36pA02O+rGvGh6mJVHo8b1Dify/UKFwvrTyWkVIHQK77MJ+Un9lnUflIHQK77MJ+Un9lnVzr+zSfpPop6o6p3Iq6Ov/Bv8B36JX88df3b/Dd9ZX9Dlf8Ag3+A79Er+eOv7t/hu+sqrdGtZPD6qHwn/n4fVddWBcEf+NY14vR+snVfqsC4I/8AGsa8Xo/WTqexnsj/AA9QpCv6h3971ZYiIuWKnoiIiLROcrQsyexaslr66kkkqZtXjHtqqiMO1Ghje0jka0Wa0DYBdYx9zkyS+IS/ntX++UnLJZbbaudos17gOZWcTyAWDj5rVWZnRmwjAHzvwunfAalrGza0802sIy4ssJXvAsXO3WvfoW0nBfouLLXe9z3bTySeJzWJzi43OZUcMb4P3JapnmqJaCQyzyyTSFtXVNBfK4veQ1soa0FxJDWgAbgAul9zkyT+IS/ntX++UnLJZbPvlQBYSO8yswqJfzHzWvczOYnDcBhlp8MgMMc0vHSB0skpdJqtZfWlc5wAa0ANBA3nlKyvK7JeGupZ6OobrwVMT4ZmBzml0cjS14DmkObcE7QQQvXXK1nPc52043PFYS4k3JzUYRwceSfxCX89q/3yHg5Mk/iEv57V/vlJ2yWW177UfvHeZWf3mX8x81j+QeQ9PhtJBQ0jDHTUzBHEwuc8tYCTYueS5xuTtcSVkDgi5WmSSbla5JOZWgM6Wg7k5i0j556Liah5JfNSPdTvc473Pa28T3dLoyT0rXFDwW+TjXhz5MRkaDfUdURtB6CWQtdbqIPSpi2RbrK6oY3ZbI63NbDamVosHFYTmxzO4dg1P2Nh1LHTRE3fq3L5HWtrSyOJfI63K5xtyWWocQ4PLJWWR8r6GUvke6R57MqxdzyXONhNYXJOwKSlkssLaiVhLmvIJ1NznzWNsz2kkE35qMf3OPJL4hL+e1f75Ztmj0SMDwOqdWYbSvhndC6AudUTyji3uY9w1ZJHN2ujYb2uLb9pW5rJZen1c7xsue4jgSV6dPI4WLj5rDs6eaiixmkdQ4hG6Wme9j3MbI+Il0btZh143NdsO217FaU+5x5J/EJfz2r/AHyk5ZLLzHUSxCzHkDgCQvLJXsFmkhRj+5x5J/EJfz2r/fLdGabNFQ4JSCiw6J0NOJHy6jpJJTryW1jrSOc7bYbL2CzRcpJUyyCz3kjvJKPle8WcSV8uC1Rnf0YMFx0h2I0bJJgNVtRG50M4aNw42Mtc4Dka/WHQtsriyxMe6N20wkHiF4a4tN2myhtLwWeTpNxNiTR8Hj4j5LmC6yfJrg4MlqexdSz1Tgb3qKmUg9bIzEwjrapRIt12IVLhYyO81nNTKRYuK8DG8iKeoopcPljvSS07qV8TXOb94fGYnMDmkOb2hsCDcc60F9zkyT+IS/ntX++UnEstaOeWO+w4jkbLGyV7PhJCjH9zjyS+IS/ntX++W0czGj3heAMnZhkDoG1LmPlDppZi50YcGWMrnFtg47G2Butl2Sy9PqppBsveSOBJK+vmkeLOcSOarw4XL8Hgfh1/6NKq4VY/wuX4PA/Dr/0aVVwLo+CdjZzPqrTh/UDxRXN5BaPmEY5k5gjcSoop3NwykDJReOdg4pps2aMtkAJ97ravQqZCr4tGfvewb5tpPUtWh0he5jI3NNjfUZblrYm4ta0jj9FoOq4LXJ1ziWy4ixt+4FRGQOgF0BdbrJK2Nmw0GcnMKkbNDRcfOw3ZNWPNQ5pG5zWOtE1w5HNjBUgbJZUx9fUvGy6Q25qBdUyuFi4r5Y1dfFsNbNFJE8XZKx0bwCRdr2lrhcbRcE7Qu0uVorXUYhwceSfxCX89q/3yfc48k/iEv57V/vlJxLLc99qP3jvMrY94l/MfNanzN6L2D4BJNLhlO+B9QxscpdPNNrMY4uAAle8CxJ2ixK9XPJmIw3HoYqfE4XTRQy8dG1s0sJEmo5l7xOYSNVxFiSFsRcWWEzSF/tC47XG+fmsftHbW1c34qMf3OPJL4hL+e1f75PucmSfxCX89q/3yk5ZLLN77UfvHeZWX3mX8x814WRORkGH0sFFSsMdNTRtihYXOeWsbuBc8lzj0uJJXu2XKLTJJNytcm+ZXkZS5LU1ZE6CqgiqIXizo5o2yMP8ARcCL9KjvlXwc+S9U5zm0ktI53xWokY0dUbzJGOoMUnkss8U8sXVuI5Fe2SvZ8JIUNG8Fhk8D+HxIjm4+HzX4hbHzf6COTOHPbJHh4qJWkFslY99TYj33FvPFA9UYUhLJZZ319Q8WdIfNZXVMrhYuK/Kmp2tAa1oa1oADWgAADcABsAHMF+tkXK0VrLghaXzuaIeA43IZq2ib2Qd9RA50EzuQF7oyBIRycY163SuLLJHI+N20wkHuXtr3MN2myh3ScFxk414c6TEZGggmN1RGGuHwSWQtfY87XA9IUls3WaygwmnFLh9LFTQjaWxjtnutbXkebvkefhPJKy6yWWaaqmmFpHkjvKyPnkeLOcSo4Y3wfuS9TPNUTUUrpZ5ZJpHCsqgDJI4vebCUAXc4mwAA6F0vuceSXxCX89q/3yk5ZLL0K2oAsJHeZX0VEo/5HzWls02iDgWCVXZuHUskNQYnw67qmolHFyFpcNWSRzdpY3ba+zftK3SEsuVrySPkO08knic1ic9zzdxuVjGX2beixSndS19NFVQO26krb2I3OY7umOHI5pBHOo0Y1wYGTUry6Ps+nB95HUhzR1cdHI/zuKl8uFliqpoco3kDuK9smezJriFEfBODFyZiN5G11T+TLVFrf/ZZE7+8pEZsM01Bg9MaTDqdtNAXmVzGl7taRzWsL3Oe5zi4tY0Ek7mhZgi+y1U0wtI8kd5R8z35OcSo/Za6CuTeIVdRW1dHJJUVMhlle2rqWBzzvOqyVrW3tuAAXifc48kviEv57V/vlJxLL6KyoAsJHeZXoVEgFg4+a0Pm70JsncKrIa+io5IqmAuMT3VVRIG67HMd2j5XNPauI2g2W92hc2RYJJXyG7ySe/NYnvc83cbpZawzoaNmCYxc4hh8E0lrcc1pint8tEWSedxW0FxZfGPcw7TDY92S+NcWm4NlD/E+C6ybe4ljsQhB94ypa5o6jJE93ncV+mDcF/k1G4GTs+oHwJKkMaeviY43f3gpeWRbv7RqrW9o7zWx71LptFa8zaZgMHwgf8OoKencRYyhuvM7wpn60h6tay2GAi5Wi57nnacbnvWuXF2ZN0WgMvNBzJzEqyeurKOSSpqX8ZM8VVSwOdqhtwxkrWt2NAs0ALf64svccr4zdjiD3Gy+se5hu02UY/ucmSXxCX89q/3yyLN5oSZO4VWQ19FSSRVNOXGJ5qql4aXMdG67HyOa67XOG0Hn5At9WSyzOq53DZL3W5lZTUSEWLj5r85YwQQdxFvIVGmTg6MkySTQS3JJ2VtXvO0/85SaSyxRzSRdW4jkbLGyRzPhJHJRj+5yZJfEJfz2r/fLY+ZjRnwjAHzyYZTvgdUtYyUunmm1mxlxZsle8NsXO2tte/Qtq2XKyPqpnjZe9xHAkle3TyOFi425oiItVYEREREREREREREXBKXXy9y+EohevNxLKenhBMs8UYG/Xe1v1lRq0isuaeN7w3HZY37f90gaJADbcXRFhF/y3EqKc+OOkNzxsh+E4nb5XFVSuxz3d2w1l++/2Vho8J9u3ac+3dZWHYxpC4RDfWrY3EcketIT1aoI9KwfFdMvDmG0cVTL06rGD+86/oUJhK/4DR1u/UF9R6/Lq+S6rsvSOpd8IA+anY8Cpx8RJ+SmF/ts0vxOf+3Gv0h016QntqOoA5w6MnzXH1qH4XK1v8QVn5h5BbP7EpfynzKmdS6Z2HOIDoapg5Tqxm3kD7rNsC0isIntq1bIyfeygxkeVw1fSq+wuFsR9JKlvxAFYZMBp3fCSPmrQMOyhgmF4po5AdxY9rvqK72uqu6PE5IzeOR7DzscWn0ELOMBz+4tTkalZI8D3stpAf7QJ9Kl4uk7D1jCOWaipej7x8DgeeSsOBS6iHkzppVDbNqqWOQcr4nGN39l2s0+QhbkyR0lsKq7N47iJD7ycam3mDrlp86sEGL0s2TX2PA5KGmw2oh+JtxxGa2yi/CmrGvAc1zXNO0FpBBHQQv2BUuCDmFGdy5REX1ERERERERERERERERFpPSP0WKHKYUja2aphFGZjH2O6NutxwjDtfjI5L24sWtbed+y2khwU2BfHMT+kp/8upsaqWW9FXVETdiN5A4LZZUysGy1xAUJ3cFLgXx3E/pKf/LqXWQWSMeH0VLQxOe6KkgjgjdIQXuZE0NBcWhouQNtgAvesgC8TVc04AlcTbivEkz5Mnm65REWosKIiIiIiIiIiIiIiIiIiIiIiIiIiIiIiIiIiIiIiIiIiIiIiIiIiIiIiIiIiIiIiIiIiIiIiIiIiIiIiIiIiIiIiIiIiIiIiIiIiIiIiIiIuCvkuRF1MVxSOGN8srgyNjS57nGwAChRnu0kamvc+npHupqMXaXM2TTjlLnb2MPI0bec8i97SqzwOnmOHwPIhhP38tOyST4Bt71nKPhdSjtdc8xrGHF5ggNgNTxPd3K74ThbQ0TSjM6D6r8IqNo22uec7SfKdq/ay5RUkknMq2gACwREX70lA+Q2YxzzzNaT9QXwC+iEgar8EWU0WbCuk3U7h4Vm/WV7MWY6tO/im9byfqas4p5Do0rEZmDUha9RbJ/gIq/hw+d37K/ObMZWDcYnf0yPravXusv5SvPvEf5lrpFl1Xmpr2f8guHO0g/avFq8lqlndwSt62G3nssRieNQVkEjToQvLS65e22/Yvm6x5r3ksryPzo19A4Opqh7RysJ14z1sdceaxUks2ul7DMWxYgwQPOzjmXMR8Ju1zOvaOpRDRS1JilRTEBjrjgVG1OHQVA/EM+IVotBiLJWB8b2vY4Xa5pBaR0ELsgqv3M/nwqcLkDdYyUrj98hJJA53R/BcB5Dy86ndk1lFFVwx1ELg+OVoc0j6jzEG4I5CulYbicda3LJw1CoNdQPpHWOYOhXrIuAuVNKLRERERERERERERF8ly8+syjgjNpJomHmdIxp9JC8Oe1vxGy9NaXZAL0kXRosZik/ByRv8B7XfUSu6CvocHC4zXwgjIrlERel8REREREXBKIuUXwXrzanKmmYdV88LXczpGA+YleHPa34jZemtLtBdeqi6lHiccgvG9jxztcHD0ErtAr6HA5gr4QQbFcoiL0viIiIiIiIiIuCV8PnA3kDrXwmyL9EXWFez4bf7Q/Wv3Dl8DgdF9ItqvpERel8REREREREREREREREREREREREREREREREREREREREREREREREREREREREREREREREXBWD54stxh+H1FTezw3Uj6ZH9q3zd11ArNyVEnTgywN6Wiadg+/SdbjqMHm1z5VF4lUewp3PGtsua36CD287Wbr5+CjXU1Lnuc9xLnOJc4naSSbkk9a6zpdthtPoHWfsXxLLc6rd/KeYfrK7FHRkkMYCSTYAbSSfSSuNm5zOq6mMshuQLLMlc2lTVWc1upH/ACj9g62je76ulbGzf5nmRhs1UA+TYWx72s8L4TujcOlbRYwAWAsByBS9PQbQDpPJR81ZY2YsAyfzLUkVjJed/wCXsb5Gj7brOaPD44xZjGsHM1oH1BdhFMsiYz4Qox8jn6lEXi4zlnS05tLMxrvg3u7zC5X44Dl5S1LtSKUF9r6pBaSOi4F199oy9r5r5sOte2SyBERZF4ReHlZjE0TPvEDp5DuAtqt6XH7BvXuIvLhcWC+tyN1ofHIcTqLiWhjcDycS246nX1vLdYJXZqaom4ppo+husR5NYkjzqWaKPNEDq4rcFSRoAokx5uK1v/KqD0ahP2L86rB5o/wkcjfCYR9YUul8SwBws4AjlBFx5isTsOB/5LK2tI3KHqlXoW5WvIqqJxJazVnjBPc6x1XgdFw09ZKw7L3NBFK10lM0RygXLRsY+221uRx5wsl0LMBIlrpyLFrY4bHkJJc76gs+FQyQ1rBxutbE5WS0jjyUsAVyvlq+l1ILnaIiL6iIiIiL5e+y+limc6skZQVTow4v4pzWhoJdd3a3AG24BusE0nso3P4AnyF1lij9o9rNLkDzNlovO5nwmmkfBSPMUDSWukYbPlI2GzhtazmsQXb9xAGq8PwWeoJ4qKWY7zqMc87ecgH0r7GTVT8Xn+if+ypl5BZLspaSGJjQ2zGl5tYueRdznc5vz7hs5FyKkoanHKh76lxa0c9+5o0yXYayupcCpmMpWtc4943alx1z4KFzmzU79okglbt99G8c3MQt+5kM80k7xR1btZ5H3mU73WFyx/O620O5bG+3f6WkxgUbqNk9hxsUrWh3vi197tvyi9ndFjzqO+S1UWVNO9vdNmiI/tjZ5VhPtsDr2xMfdpt3XByzHELOBDj2HGV7A14uL8CM8jrY8FO0Fc3WC5z85Iw2OKQxGXjHllg/UtZute+q6/NyLXQ0qh8SP04/dLp1TjNJTSezmfZ3Cx+y5ZS4NWVUftIYy5vG43eK39rLm61Vm3z4DEagwCnMVo3Sa3Ga/clotbUbvvvuvIyo0jRTVE1P2IX8U8s1uODda3LbizbzlDjVG2ITmT8BNgbHXyQYNWOmNOIztgXIuNPOy3XrL8K2ubGxz3kNYxpc5x3BoFyT1BaH/wBqofEj9P8A/wA162XmWUldgnHQxPaZ5BGY23kcGteQ7uWi4Opt2cqwftylkY807tpzWl1rHd4cbLOcDqopIxUN2GucG7RIyv48LrWGcrPTUVr3Mie6GmBIa1pLXPHwpCNu34G4dO9YTh2TlRMC6KCWUDe5jHOHTtAXawjI6okmijMMzRJIxhcYngAOcGkklu4Xupq4RhEcETIomhjGNDWgCwsBbynn6VQKDDKjGZHzVT3NA/vIHIALomIYpTYJFHDRsa4nv4byRmSVByjr56aS7HSQyNPIXMcCOQjYfIVJbMjnbdWh0E9uyGN1g4WHGsGwmw2Bzdl7bDe+zaFimlDgMbTTTtAEjy+N5HvgAC0nnLdu3p6lrnM1VFmJ0liReQsNuVrmuBB6Nt14pZJ8IxIU23tMJAI3EO0NtxF16q44MZww1ewGvAJB3gt1F94NlM4LldeprWsaXPIa0b3OIaBybSbBdD/W6l+MwfTR/tLsJka34iAuNhjnaBeui8j/AFvpfjMH00f7Sf630vxmD6aP9pefbR/mHmF69k/gfJeui8+ix6GQ6scschAuQx7XEDdc2JXe1lkDg4XBusZBGRRyjFpD5w+Pm7DideKA/fCD3cvN1R7vCvzLb+ePOEKGlJaRx8t2QjmNtr+pg29dlEeKikkEkgBcGAPkeeTWcGgk85c7y7VzvpVihaPc4T+I5utuGtvHU9y6P0TwsOca2b4QbNvvOl/DQd/JdeHeOsKfNIO1b1D6lAaHeOsKfVJ3LeofUFrdCzf238P1Wx03ADobf9vov2REXT1y9ERERERERERERERERERERERERERERERERERERERERERERERERERERERERERERERERfLlXRpNZRmpxWqc06wZK2FnVELbOjWuVYZi9cI4pHk2DGOcT0NaT9irExmq42WSR290j3+VziftVK6SzbLGRjeb+StWARbT3v4Cy6NJBqjnJ2k85W+8z+b4RMFTM28j9sYPvG89vhO9AWt82GS/ZVUwEXjj7eTmIBFm+U28l1JdrbbOQbB0BVOggDj7R3grPVzW/AFyiIp5RKLzcoIpnRlsBax7tmu73g5XAcrubpXpIvhFxZfQbLWdNmMhJLpppZXuN3O2C55ec+lerhOaKlhkZLGZQ9h1gdfZfpFtyzdFgFPGDcDNZTM85XRERbCwoiIiIiLpYzXOjie9rHSOaLtY3e48yE2F0GeS7qLSgz1VcUlp6cBl+51XMdboJ/Uto5LZWw1cevE7d3TD3TT0j6iNhWtHUMkOyNVmfC5guV7SxzJfPhR4K+qp3QSvklqXTOLNS1nsZYC5B2WJtbeSsjUaM7El8Qn6C0eZjV8nqn0tpI/i0zSOnbUXjfop6Zvc5NNiUPHUzyQDZ7HbHsPM5v1HcVlgKgboxZZupcUij1iIqr7y9t9lztYbc4ds6iVPFiueFV3vkO2fiGRVSxGj91l2RocwvtERTSi0REREXyWr6REXxqLm9kLlpfPdnk7HDqWlcDO4WkeP+S0jcP8A1D/dG3lCj62tioojNKbAfPuC36GilrZRDCLk+QHE9yw7SMzhNnlbSRG8cDi6UjcZbWDf6AJv0kjkWKZl8jnVdbGbfe4HNlkdyDVN2N63OA2cwPMsYyaybmrJ2wwtLnvO0nc0e+e48gG8n7SpiZv8hoqCnbDGLu7qR9tr3neT0cgHIAuY4bSS4zWmsmFmA+dtGj6rqOKVcWC0IooTeQj11cee7+iZc5v4MQjZHPr2Y4uaWO1SCRbmII6CFE7OJkHJh9QYndsx13RSW2PZ+03c4eXcQprrGsvsh4q6ndDILHa6N9tsb+Rw6OQjlCuOOYHHXRl7BaUaHj3H6cFS8Bx2TD5Q15JiOo4X/wCQ+vFaV0bKqj417XNLazVcGOLzqyRmxc0Nvq6zbbdl7bfhLFc+k9Ga2QUzTxmsTUSa7nNdKd7WgkgavvrbL3GyxWF19NJSVD2B9pIJHN143e+abXa4f+ch5l2sjMmHVtVHAHBpkd2znEbGja4i/dOtew3k+Urmhr3zUrcOEY29q18uXnfU8F08YfHDVPxQynY2b2z5+LbaDislzR5q3YjKS/WZTR928bC528MYTsvyk2Nh1hSnyWyWio4GU8IOozWtrHWN3EuNz1kr7yYydipYY4IW6rGCw5yeVzjyucdpK9ddUwbBosPiGQMhGbvoO71XJ8ZxqXEZTckRg/hb9T3+i/PU6kfKANuwfUvpz1HfPlnk1tejpXdrtbPK07+eNh5uRxG/dzrfxHEIqGEyyeA3k8Fo4bh0tfMIYhzO4Dif7zWG58cvxW1WrGbwQXYw8j3Hu3joNrA8wvyr19HPIx01X2U4feqe9jyOlc0tAHPqtJcebtedYNkBkLLiE4ijFmixlkt2sbOc87jua3lPlImLkzk3FSQsgibqsYLdLjyudzuJ2krneC0MuJVZxCo+EG47yNAO5v0XR8dr4cMoxh1P8RFj3A6k97vqvBzx0T5cNqmRsc97ms1WtBc42kYdgFybAE7OZRQ/1DrvidT9BJ+ypq4zjEdPE6aZwZGy2s43IFzYbrneQFiv8NWF/G2f2X/sqzY1hVLWStfPNsEC1stLk3zVVwTFqqihcyCHbBN72JzsBbLkFFT/AFDrvidT9BJ+yn+odd8TqfoJP2VKv+GnC/jbP7L/ANlP4acL+Ns/sv8A2VXv8O4f/wDK+bVYv8S4j/8AF+TvstXaOWTdRDVzOmgmiaYLAyRuYCdduwFwG1SBrq5sbHSPIaxjS5zjuDWi5K8TJ3L+jq3llPO2RzW6xaA4Wbe19oA3kLUekbnFsBQRO2mzqgg7uVkezn7p3Rq85VnZLT4Rh5cx+20Xscs3HdkqvJHUYziAa9mw42uLHIDfn3fNarzi5ZSYjVukAJbcRwM5mXs2w+E47T0m3IFtXHsgBQYBO1wHHymF8zunjGWZfmZu67nlWH5icMpBOaqrqKeMQkcVHLKxri+3d6riDqt5Nm13graGezLWjmw2eOKqp5HuMdmMmY5xtIwmzQ4k2G3YqlQQNfTVFdUPBke11hcXAIProO5XDEahzKqnw+mYRGxzNogGxIIy8NT38lGCLuh1hT6pO5b1D6goCRHaOtTiwPLOkmLY4qmCSTV7hkrHO2Db2rSTs5diz9DJGtMocQCdm3fqsHTaNzjCWgkAOv3aar30RF1NcqRERERERERERERERERERERERERERERERERERERERERERERERERERERERERERERcLlcFEWDZ7sV4nCq5/wD9O9o65O0H6Srpup06V9fqYPKP5SWFnX22sfQ1QWXNOksl6hreA9Vfej7LQudxK3vmHwfVp5Jja8r9UeCz/wDYnzLZyxTNbT6tBT9LS7+04lZWvlM3ZjaFlmO08lERFsrAv0p6dzyGtBc47gBclZbQ5sZ3C7i1nQdp9CyfN5k82OISkdvJtueRvIB9azEBWKlw5paHSb9yr9RXuDi2Nanrc2E7QS0tf0A2PkvsWKVVG5ji17S1w3g7CpBkrF8tsm2zRlwA4xgJaeU296etfanDWBpdHqkGIu2gJNFp5ERV1WBERF8REXfwfA5J3asbSec7gOs/+FZdFmofbtpWg8waSPrW1FTSSC7W5LWkqY4zZxzWuq3Do5BqyMa8czmg/WsToc3jaapbPSnUa7tZYSe1c08rTyEGxsdnNZbixTNrPGCWkSAcjdh8x3rE3xkGxBBG8HeFrzUpYbvbYrPFUtePwOuvlRPzgVutU1T/AP1JP7pIH1KVNdPqse74LXO8wJUP8Sa6QuA2ukfYdLnusPSVC4hnss71J0mQc7uX65G1U9PNSyPa9t3RzQOIIEjGyWu08ou0hWi0Uus1p52g+cXWpsXzAU9ThtDSPAZNRxw8VMB2zXNDeMaedrzrXHObrbVNFqgDmAHmFlesKoHUhcDobHx3qm4jWtqdnLMX/ov3REVhUKiIiIi4LlyvGyrrHR0tTIw2cyCV7TzOaxxB84C8SP2Glx3C69saXuDRvyWu89OeAUbTT07gal42kbRC0++P5Z963ynkvGrCsMmqpmxxh0ksrusknaXOPIN5JJ2bV1KuqdI5z3uLnuJc5xNySd5J513cByknpXF9PIYnEWLmgXtzXIOzq+xcGxHFjiFSHT3EYOTRnl8hc8dy79huEfs6mLILGUjNxyBPhc2G4KW2bHNtHh0OqLOmeAZZLbSeRreZjbmw5dp5Vi+UOkdT088sBp5XmJ5YXNcwAluwkXN9/OtH/wAL+J/HJf7v7KxSsq3SOc95LnvJc5x3kk3JPWVP1HSdkULIsPZsW4gEW8zn3qu03RV8s75sRcH3/KSDfyGVtynXk/i4nhimALRLG2QA7wHC4BtsvtWr8+ednsVhpYHf7xI3tnD/AJTDy9D3DueYbea/l5WZyJ8Pw3DOIEZMsDQS8F2rqRstaxA99yqPWIV75XukkcXve4uc47yTvP8A5yKVxvpAYoRTxX9oWjaOlgRfLvN/BRGA9HRNN7xLb2YcbDiQbZ92XivbyGyJmxCoEUez30khFwxvKXdJOwC+0+UrrY7gs9BUujfdksLwWuGy9jdr2HmO8H/5W49GPHwXTUwiY2zONdKL67jrBoa65tqgHYABz8pWLaQWVBmrHwGKMdjkBsovxjmuY1xa7bYi5uNmzylVZ+H07MNZWB59oXd+v5fC3xK2x4jUSYo+jcwezDe69vzeN7bK3VmeznNxCHVeQKmIASt3aw3CRo5nco5Ds5Qthlyghk7lDLSzMnhdqvZu5iOVrhytPKFIBuc6pqMEqqolsczX8UHRgjYXMBIuXEOs42N9iuWDdI2zQFk19tjSeYaNe4qlY10bdBOHwWEb3AD/AKlxtbvHpournwzzamvR0j+3ILZ5WnuRyxsI98dznDud2/dpLJDJKatnbDC25ce2d71jeV7jzDm3k2HKvFcSdp2kr2cn8saql1hTzOi1trtUN223XJBOzrXP6rExX1Qlq77APwt4cBmNd5XRKXC/cKQxUlvaHVzt545X03DT1UwsicioaCAQxDdte8jtpHcrnH6huAWuX6T1OHlnY02x2rfWZY2Nr71pl2d3EzvrJf7v7KxWmN3t8IfWrJU9KLNjjoW7AGRBA0ytbXvVXpuihJklr3bZOYIJ1zvfTuUy85+Dy1WHTxQs15JGs1W3Av27HHa4gDYDvKjd/ALivxb/AN2H94pe0fcN8Fv1L9VdsQwOnxF7ZZibgWyy7+HeqPh2O1GHMdFCBYm+Yv3cRwUPf4BcV+Lf+7D+8T+AbFfi3/uw/vFMKyWUX/g+i4u8x9lLf4xruDfI/daIzE5tq2jqZZKmHi2Oi1QdeN3bazTazHOO4Lx8vswtdUVtRPEIuLlfrN1pLGxAvcapttupIIpM9H6V1M2lO1stO0M7G5vvt3qLb0hqm1LqtuztuGycsrC26+uSih/s24lzQfS//qvJyozK1tHC6om4ri2at9WTWPbODRs1RynnUw3qJmczPDV1JqKR3FNhErmENYdYiOQ6t3EnlaDssqljGDYbh8JcdvaIIbnfO2/uVvwbG8TxCcNbsbIsXZWyvu77LWTG8ikHmfzN1tHWx1Ewi4sMeO1frO7ZthssFHwFSOzK54Kutqex5xEWiJzg5rS1126o27S3bfkAVf6NtpTUtE19u42LaX71Yek5qxSuMGzsWO3fWxyy+a3muURdzXCURERERERERERERERERERERERERcXS6IuURcXRFyi4ul0RcouLrlERERERERERERERERERERERcFcrghEUd9NGttQU0fwqoO/sxSftBQ3Kl9prxnsWjPIJ3gnpMZt9RUQlynpAT74eQXRsEH+lHMqUmb78SpvkmrIVima2o1qCnPM0t/suIWVrei+BvJa8nxHmiIiyrGt6ZMVAdTxEbtRo8oFj6VrnP3n6pcF7DjqJhA6vmMLZ3DWbTsDbune072sJaObtrnYCvrIfLLiPvcn4MnYd+qT9n1LQnCOZoajFaClrqJpn7C40TRx9s7iZQ28jWja4sLBcDbY35Fc6epbJGLHPgqrLTlktnacVF7KbTwxuhxioihxhuIU8NQ5kb+LjNLURg3aW6oFgRsu07DexVlmY3PDDjeFQ4ixvF67XNmjP/Llj2StvygO2g8rSFRLhGb6d07WNa57tcBrGtcXuN9gDQL3vZW06M2T8uEYBDQybKiZ8lROL/guNsRFf4QaGh1txuF5lqGxtJcVm93L7ADO/yWZynaSOcr5RFTzmrIBYWRfpTQFzmtG9zgB1k2X5r98PxFsUkcju5bIy/lcB9q9NA2hdeXX2TbVbxwLBmQxtY0WsNp5zykr0SFrfPtnogwPDzWzgkGSKGMDbd8rrX6mN1nnnDbcqrv0htNXFKHF9XD8ebWUrmRzRmGKHima97wyNDT2zSNovexF7FXobLAAFTgx0huVauVrzOXk4ABOwWO6TpvuPnWFaIOkd/rFh7pZWtZWUz2x1LGdydYExytG8NkAds5HNcNq2rnAnApZAeWwHSb3+xa9U1r4XX4LLTl0coA4qO+cOv4uiqHbjxZaOt3aj61qDMDkb2bitKwi8cL+yJObVi2gHrfqrO8+mIatI1l9skg8zQSfTZZ/obZE8XTTVrh207uLjJ38XHvI6HPNv6KoMEHvFcxu5uZVznl9jSOdvOQUkGr6suGhfS6YqAiIiIiIiIi69TTNe1zHtDmuBa5pFw4HYQRuII3hdhF8IuixcZscO+JU30LP1J/Bjh3xKm+hZ+pZQi1fdIP3bfIfZbXvc/wC8d5n7rF/4McO+JU30LP1Lg5ssO+JU30LP1LKUT3OD923yH2T3uf8AeO/8j914eIZH0srI2SU8L2RC0bXRtc1gsBZgIsBYDdzLojNjh3xKm+hZ+pZUi9OponG7mA+AXltRK0Wa8gcyvFwfJClp3F0FPFC5wsTGxrSRvsSBtF9q69dkFRSvdJLSwSSOtrPfExzjsA2ki52ADyLIkX008RbslgtwsLeS+e3l2traN+NzfzWLnNlh3xKm+hZ+pd2HJClbE6BtPEIXHWdEGN1HHZtLbWJ2DzBe2i+NpoW/CwDwC+uqZXavJ8SsX/gxw74lTfQs/Un8GOHfEqb6Fn6llCLz7pB+7b5D7L171P8AvHeZ+6xf+DHDviVN9Cz9S+Rmyw74lTc/4Fn6llSJ7pB+7b5BPep/3jvM/dfLG2AHMvpEW2tVERERERERfLwsalzbYe5xc6jpnOcS5xMLCSSbkk22knasnRYpImSfG0HmLrKyV8ebHEcjZYsc2WHfEqb6Fn6l3MHyLpIH68NNDE+xGsyNrXWO8XABsbDYvdRY200LTdrGg8gvbqmZws57iOFyiIi2VroiIiIuFyupiGIRxNL5HsjYN7nuDGjrJIC8lwAuV9AJNgu0uVhlXndw1hsauIn8kl/6AcswhlDgCNxFx1HcsUc8chIY4G2tiCsskEkdjI0i+lwQvtERZ1hREREXCErr4hIWscW7XBriAdxIBIv5VEPKLPXiNQS0zcU3aC2Ean97a/8AvKBxXGIsOA9oCSdAO7vU9hWDTYk5wjIAba5Pfw46KVWOZX01MLzzxR9DnjWPU3uj1AFdvBcZjqImTRO143i7XWIuL23EAjdyqB887nElznOJ3lxJPlJUt9H+u18MhHwHSM8zyR6CFDYP0hdiNS6Is2Ra43nX7KZxno4MNpmy7Zc4uscrDQ+Oq2QVrzOZnhgw8aluNqHC7YgbBo5HSHbqjmFiT6Vm2NYiIYZZTujjfIeprSfsUGcdxl9RNJNIbvkcXHovuHUBsHQs3SPGHUEbWRfG7fwA38+Cw9G8GZiErny/A3UaXJ0HLis6xjSBxKUnVkbC3kbGxuz+k4OcfOuthufbE4yCZ+MHK2RjSD5gD5itp5pcyVKaaOoqo+NklaHhrr6jGO7kao3kjaSb2XiZ8c0FPTwdlUreLDHNbJGCS2ztgcL3sQbAjlB6FUZaLF20/vjpjptbNzcDXTTTcrfFXYM+o9ybANdna2Ra+muuu9Z/mszyRYgOLeBFUNFyy/avA3uYTt62naOnetlhQSyUxp1PUwzMNjHI13WL2cOoi4U6oJLtB5wD51b+jeKvr4XCX427+IOh58VT+kuER4fO0w/A8XA4EajloQv0REVwVPRERERERERERERERERcErlcIi0tpZYFx2EveBcwSxy9QuWO9DyoMhWaZa4CKqkqIDulhezn2lpsfIbFVo1tKWPcx2xzHFpHS02P1Lm/SaHZlbJxFvJXvo/NeN0fA381vnMXiOtSFn8nI4eRwBHputjLRmYXF9WeWEnZIwOHhMP6ifMt5rXo37UQ8ls1LdmQoiIt1ayL9oKx7e5c4dRIX4ovQJGi8kA6rpMwWEP4wRRB9ydcRsDrnf2wF9q7qIhJOq+gW0REReV9ReDlhUWjYPhSsHkBv9i95Yll7LbiPlL+ayxyGzSs8Au8Lp6U2Ts2MYC+lj21NLIyphH8sIw5ro78j9RxLb7CRa+1VOVmQEwnLCHB2tYsLXcYHX7nVte91c21ee7J2nL+MMERkvfX4tutfn1rXv03UzFXuaAHC6in0rbmyw7g9M0k2D4dVVtcDTyVzouLhk7VzYIGv1XObvDpDI42IuABuut05a5W9kODW7I2budx5z9gWNyTuO8k9ZuvheaiudI3YAsF5hpA1/tHZlaUzuOdVV1PRxds/tWgD4crhydDQCeZTZyMyaZR0sFMzuYY2s6yB2zutzrnyqM+jlkgavFavEZBdlPI9kZO4ynYLeAwf3gpZtCzYHT2Dqh2rjYcgtXF57lsLdGjPmVyFyiK1KvIiIiIiIiIiIiIiIiIiIiIiIiIiIiIiIiIiIiIiIiIiIiIiL4eURfa+XPWi86mkAYZH09GGue27XzHa1rhvawbnEcrjsB2WK0jiWXtdMSZKmdxO0gSOaP7LSGjqAVMrulFNTPMTAXuGRtpfhf+iutB0VqqqMSvIY05i+pHG39VOFj7r7UF8Oy3rISDHUztI5OMcR5QSQfKLLf+ZzPa6rcKaqsJrfe5BsElt4I3B/Ls2HmHKw7pRT1cgicCxx0voe7mvOJdFqmijMzSHtGZtqO+3DxW6UXy0rkq5qmLlF8GRdaoxONgu+RjR+U4D6yvJcBmSvoBOQXcRYxW5yaCPu6uAdUjXehpKyCnqQ5oc03a4BzTyEEXB8oWNk0byQxwJHAgrI+J7AC5pAPEWX7qOOkvlprPjomHYz77L4R7hp6hd39Icy31lHjjKaCSd5s2Nhcem24dZOwdJUK53zV9W491LPIT59vmaPQFSuldcY4RSx/E/d3f1OXmrv0ToRJO6qk+GPfuv/QZ+S8S6nTkZW8ZSUz/AIUER8uoL+lQYkYQSOUEg+RTHzJ1uvhlKfgsLD/Qe5o9ACgOhklp5YzvaPkf6qxdNo9qCKQbnEeYv9FnSLEs5WWbqCmdUNi43Vc1paXlmxxte+q7ceSw371pCt0oaw34uCBnha77eZzFfK/G6Whf7OZxDrXtYn+nzXP6DBKuuZ7SBoLb2vcDP1+Sk4uLqIldpBYo/dMyPwImf92sfSV4FdnOxCTuqufb8F5aPMzVAUBJ0xpB8DHHyH1Vhj6GVh+N7G+JP0+qmu+x2LyaXJClZtZTwtPOI2A+ey05oyY3LI+qbK+STZG4F7nO5XA2LiVvxwVnoallfA2fZte+uds7Kq19K+gndT7V7WzGQOV/koOZf0PFVtUy1g2eS3UXEj0Fb80X629JMz4E9/I5rftBWo8+1DqYnUfl6j/OwfaFnmitW9vVx84jf5i5v2hcxwf/ACMadHuJePUj0XUsZ/1GCNk1yYfQH1W9sosI7Igmh1tXjY3x61r6us0i9ri9r3tcXWoaLRbph+EqZneCGMHpDj9a3guLLqNVhtPVOD5mBxGl1yqlxKppGlkDy0HWy6WFYcIY44m31Y2NY2++zRYXsBt2LWGkdlE2Kh4i44yoe0AcuqwhzndVw0eVbPxXE2QxvlkcGsY0uc48gChrnKy4dX1L5jcRjtYWX7mMbv6Tt583IFAdI8QZSUhhb8TxsgcBvPlkrB0Zw59ZViZ3wMO0T37h55leTkrgrqiphhYLukkaOoXu49QAJU6qeOzWjmAHmFlpDR2zcGJhrZm2fILQtI2tj5X9Bfyfk+Et5BeOi2HupqYyPyL87dw088ysvSzEm1VUIo82syvxJ18rALlERXVUhERERERERERERERERF8kr6X5yusCeYXXw5IvAyiyzip+1ddzj71u/wAvMoSZ1M29U+rqaimgDoZJDI1oe3XGttcA0298Tbat/wCL1pkle873OPk5h5li+MzzxDjGESMHdNIs4DoIts8iomJy+9fhf8IOSuuGwewzb8RG9RmyUyi7Gq4nODo3xyAPY8apsTZw29BKllFIHAEbQRcdS03nUyJjxKDsmnbq1UIu5oHbPaN7Tzkb2nrCyvMplIamgj1j98hJhkvvuzdfp1SFD0zPZEtGhzClKhxdYkWI1WeIiKRWiiIiIiIiIiLzMPrrzTRneC1w8EtG7qIXpr4Dde3N2dUWF5xX/getx+pZosAzgz60sbBvaP0isU3wraoxeQeKzunN2tPQPqX6L4gbZoHMAPQvtZhotR2qL4maSCGi7iDYDlPIPKvtdzCK8RSNkLdbVNwL228nmXoAE2OixuJAuFsrNLkQKCiigsOMN5Jj8KWTtn36u5HQFmi1zgmct75Wsexoa82uCbgndvWxgVdKV8bmBsWgyVQqWSNfeTU5rlERbq1UREREREREREREREREREREREREREREREREREREREREREREWO5fV7oqOpkZfXbC8ttz6u/yb1kS+XMB3rFKwvY5oNiQRfh3rJG4Me1xFwCDbjbcoJU2TtTKbsgmfc7xG836b2Uss2mbWnpKaK8TTM5jXSyPaC/WcLkbR2oF7WHNyrOeLHIFhWVOd+ho5HRTSOEjQCWNY5xGsLjba2486p9DgtLhRM80gJOV3WAG/LvKuOIY3VYuGwQxkAZ2bck7s9MgsG0ichYBTdlsY1kkb2tcWgN12vNttrAlpsQbX3rQWS9c6Kpgkb3TJYyP7Q2eXctj54M9Ta+MU8DHNhDg57n2Dn23ANG4A7dpudm5fhmOzZyVM7KmRpFPC4PBP/Me3aGjnAO0nydVNxAMrsUaKHPS5Glxq7wyV2w50mH4U41+XxWB1sRk3mTfLcFsnPbnRq6CSFlPxYbJGXEuZrO1g62ztgLWtsLStO12fHFJP+qc3oYyNvpDb+lSuxvJSmqQOPhjl1QQ0vaCW3325rqM2dzM2+icZoA59KT1uiPM78nmd5+mc6Q02Ixl1RFK4x/lBI2Ry4eigOjdThsgbTzRNEn5nAHaN9L7j3b1sTR7xmrnbVGpdM9rgzi5JC4j3wcGE7OY7FozLbJqoppS2oa5usXFms4Ou0OsHbHHYVl2aPPG+hPEzXfTO5N7oieVvO08rfKOnEMs8p5K6qfM693u1WN36rdzGDyeckquV1ZBPh8LA9zpQSLHXPM31uNwzVmoKKenxKZ5Y1sTgDcaZZC2ljvP9lfORmRc9dLxMAFwNZznEhrW7rkgE7TsAttUzsmsPfDTwxPIc+OJjHEbiWtAJF+RYnmbzfChpRrgcfLZ8p5R8FnU0em6zTFcRbDG+V5s2NrnOPQ0XP1K+9H8KFBB7WT43C7uAGtuYGq590ixY4hUeyjH4GmzeJOl+ROi0hpM5aWbHRMO1332bwR3DT1m7vIF0NGrInWdLWPGwAxQ3HKR98d5BZo63LVGP4u+vrHyOIDp5bNubBrSbNFzuDW239KlHgGVGG0FPFB2XTgRsANpGkudvc6zbm7nXKrtBIzEMRfWzOAYzJtzblr581Y8Rjfh2GR0MLSZH5usL89PIdyihlPR8XU1DPgTSN8zypK6NdbrYeW/yc8jfIQ1/wD3FR6zjVsUtdUyQuD43yFzHC4BBAJ3gHffkWYZoc78eGxTRyRPkMj2vbqFoA7WxuSercFCYNVxUWJPdI4Bn4hfdxHop3G6SatwtgjaS/8ACbb9LH1Uj8tsk21tPJTPcWNfq9s0Akarg4WB2ci19Q6MlC3u5J5OtzWj+60H0rOMJytNTQdlxN1XOhe9jHdtZzQ6wNrX2jkso3VukBib72lZH4ETP+7WP1q84vVYbGWTVMe2XD8JtfLXeQN6oWD0uJyiSClk2A0/iF7Z6bgTu+S3zRZisLj/AOmDj+W97vQXW9C92lyIoIdraanZbl4tmzykXUSa7OhiEnd1c3kdqehmqvIfV1M2908pPOZHk/WoEdJKNmUFL8gPQFWE9Ga2TOoqvm4+pCm7SYjTawjjfFrkdwws1rD8kbdi9IOUU8yWTtXHiEErqeZsfbtc90b2tAcwi5JA5bKVSuuEV7q2EyOj2LG1vLPcqNjFAyimEbJPaZXv355b1GDSao9Wujf8OBvna4j7V8aM1bq172/ykDx5Wua77Csh0pqH8Uk+UYf7pH2rXuY+v4vE6Yk2BL2G+7to3D61zmp/0+Og8XtP/lb7rpdL/qOj5HBjh/4k/ZTIXyXL8xVt+E3zhavz75yTRQiGI/f5wQHfAj3Od1ncObfyLqtXWR0sLp5DkP7t4rktJRyVUzYIxmf7J8FrrP8A5z+PkNHA771Gfvrh/wAyQe9vytZ6XdSxzMxm1NfUa7x/u8JBkPI928Rjr3u5h1ha7Lr7/Lz9K21k7n77Dp2U9NRsaG73PkLi5x3ucGtbtPXusORcZhrYaytNTXus0Zhtib8G8hv4rtc9DPRUIpcPZdxyLrgW4u5nQcFv7LDLenw6Jj5tYMJ1GBjb7hewGywsF5+QOdinxGSRkLZG8W1riXgC4JI2AE7lG3L/ADtVOIsZHM2JrGO12iNrgb2ttc57r7DyALJtGeu1a97OR8DvO1zSPRdW+LpIZ8Qjgg6o5aWOn3VNm6Minw6See/thnrca/ZSlauVw1croy5yiIiIiIiIiIiIiIiIi/OZtwRzhfovktXxFoPGcOMUr2OFrE26RyHyroubcEc+xbqyoyRZUDb2rx3Lh9R5x9S1Xi+TE0JOuw2+EBdp/V5VT6qjfG4kC7SrXS1bZAAcitR4JDJBV6pa7Vc4tOzYWncebZvWVYJkoynmnki7VtQWvezkEguC5vINYHaOcL3dVcuYRvBHWolkWypiaf2hBI3LhERZFrovwqK1rS0ONi8kNvykC9l+68yowVlTVUtO8kNkMguDYtOp2pHSDZLE5DU5L023/LTNendF52MYfVYc7UqWmSG9mVDQSLcmtzHr9K7VJXMkF2ODh0FfXAtOy4WPBNm7dpuY4hY/lPC+N7Klgvq9q9vO3/zzL1cOygilaC14B5Wk2I869FzQdh2rHMRyFhebtvGfybW8x+xYSCDdua2WvY8AP14/dehimUUUTSS4E8jQQST5FhWA0jqmp4x3ch2sebZ3LfqXtRZuGXu6RzhzWA9Kyehw9kTdVjQ0fX0npWPZc8/i04LN7RkTSGZk712ERFsqOReRW5QgP4uNpkk5Q21m+EdwXp1DCWkA2JBAPMbb/IupgmBtiFm3c5x7Zx7pxXg3JsFkbsgEuXvZL07pJoQRYlzSRvtY3O3yLfTVg2b7JExffpBZ5Hat+COnpPoWdAK4YdAY47u1KqVfMJJPw6BcoiKWUaiIiIiIiIiIiIiIiIiIiIiIiIiIiIiIiIiIiIiIiIiIiIiIvklEXD1onO/mbq62t46AR6jomNLnu1e2bcbgCTstyLZWMZ2MPgc5klTGHsJa5ou5wI5CGg2K7+SeWlPWsc+nfrtY7UNwW7bA7jY2sd9lBVsVJiA92keDnewIvkpyilrMOd71GwgWtctNs1GrHNHqvhjMlo5Q0ElsbiX2G+wc0X8hWJ5J5e1VE8OhlcGg9tGSTG7nBZ084selTbkUHct2MFZVCO2px8urbdbXO7oXO8dwtmFGOakcW3NteGdx9fBdHwDFZMXEkFW0OAF72yzyz3ciO9THyHyrZW00dQzYHjthyteDZzfIfQvYradjmOa8BzCCHB1i0g77g7LLUejC93YUt+57IOr/AGGX9K+tILOP2PD2LE60047cg7WRHYeov3DoueZX6PFGjDm1c/5cxxOlhzK5/LhbnYk6jg3OsDwGtzyCj3lu2nFVMKUHiA8hlzcbN+r+Te+re+xdXJvGTTTxT6jZOKeH6j+5NvtG8HkNjtsvfzVZE9nVbI3bImEPlO7tAe563nteq55FtHPzmxpms7KidFBIBYxktaJgAB2gJ7sDm3rlEWGzzxPxCOwDXXA00zyvll811ufE6enmjw2Ulxc2xOuuQvbPP5LbWQ2XMFfCJYnbdz2Huo3cxHNzHcV5mebCJZsOnjhDnPOoQxguXgPbrNsNpuNtuhRTyOyxnoZmzQOsRsc09w9vK1w5uY7xyWUn83ueaDEJOJayRkoj1zrAatxqghpBudp2bBcK/wCG43DicJpp3bMjhs87i1x39y55ieBTYXOKmBu1G0h3KxvZ3d3qPFFmZxOTdSSN6XlrPQ5wPoXv0ejfiTu64iMflSXP9xrvrUrrLGs4mMyU1FUTw24yNms3WF27xe4uL7LleD0UoYGF7y8gAnUbs9wHqsg6W18zxHGGNJIGh35byfRRGy9yGkw+YQSPa9xY192X1bEuFtoBuNVetmhyFgxCofDM+RgbHxjeLLQTZzQQS5rtm3kF1j2UmU9RWycbO4yPtqizQAByNAaAOXrX1huS1Y43ip6gnnZHIPSBuXOGeyFX7SKJz4r5NN8x3nNdLeZTR+zmmayW2bwRkeIGSmXktktFS07aaMudG0OA1zrGziSbkAcpPIscosxWFsN+xg4873yO9Bfq+hdLMRQVUVI5lUyRjxK4tEt9bULW85JsDfYVswLttPDBVQRvfEBlk1wvs92emi4ZUTTUs8jGSk55uaSNrvyOeqx+izfUMfcUlO08/FMJ85BPpXsxUDG9yxrepoH1BdhFJMhjZ8LQOQAUa+V783OJ5klfDmrXeenLmegp45IAwl8moS9pdqgtJBABG245di2MQulieCQzgNmjZK0HWDZGh7bjls4EX2rDVxSSwuZE7ZcRkeCzUkscUzXyt2mg5t4qFuVOXlXXEdkSGQNJLWhoDWndsDQOTnXRoMmKqS3FwTu5iyN/1gKb9JgMEf4OGNngMa36gF3BGqJ/hF0rtuecudxtn5klX8dMGws9nT07Wt4Xy8gAoi5LZtsVE0MnY84DJI3EvIbsa4E7HOB3cllt/PRmqqMRfTuhMbeLa9r+McRscWkWs11+XmW3bLjVU9B0egjgfTuc5zXWvc8OCr1R0iqJZ2VDWta5twLDjrfio4UWixOfwlVG3oZG5/1uYvfo9FmnH4Spmd4DY2fWHreNk1V7j6N4fH/+u/Mk/VeJekmIyaykcgB9Fq6h0dMNb3TJZPDlcP0NRZZk9m3oaVwfBTsjeAQHjWLrHeLuJO1ZLZcqVhw6lhN44mg8bBRU2I1UwtJK4jgXG3kuAFyiKRUciIiIiIiIiIiIiIiIiIiIuFw+MHftX0iIuj/oSK9+LZfn1W3+pedlPksyePVsA4XLHAbjzdR5l764KwuiY4FpCyNkc03BUfa+gdG9zHizmm3/AM9RXXW38uMlBOzXaPvrRs/KHK39X/ytQvaQSDsI2EHnVPqqYwOtu3K1U1QJm3371wte55cr58Pg7PpQ0z0rJJYw8XY5zG61nAEEggEbCthLBs72FcdSuYdzw+M9T2Fq0S7ZseClacBzw1wuDkvCzOcJ3gmIsZBisZw+d1mvMg4ylceUh9rtB5nt2c637Q5DYNiLRPQVMfbdsH0c7XN2/kglvksFSBltmjrqEvMsJMbXEcay7mDbykDtfLZeFk5lhV0bxJS1M9M8e+glfGf7hCsomZMP8xoKyTYG+B14nFh4HRXs1GZurZ+CqmPHIJY7HztP2Lquzb4iPe07ukSOH1tVTeSunvlXSABuKyzNHvalrJ/S9pd6VIDMJwgGVeLV8FCwUT9c60sppyOLibte86rwLgbAOVxCwup6XXMKPkpa5gzLSOKmbPQyxOcyUMD2naGOLh5zZfC/SpqXPcXuN3ON3HnJ3r81Butc7Oi+tvbPVF2KChdK9rGi5cbf+dAX4xRFxAAJJNgBvJW3cickRA3XcPvrht5dUcw+1blLTOmfbdvK1qmoELb79y8h2ahp1bSEbBrC17nlsvfwLIWGA3A13fCdY26huCyMIFaWUkTDcBVl9TI8WJXDWr6RFuLWREREREREREREREREREXyXIi+kXzroHpdF9IuNZAURcoiIiIiIiIiIiIiIiIiIiL5cF9IiKKuf/IGSCqdVNaTDOdYuA2MktZwPNrWuD0nmWEZGZe1NA8vgcAHd2xw1mOtuuLjaOcG/SptVlE2RpY9rXNcLFrgC0jpB2LXGM6PGHSuLgx8JP8AJPsPI1wcB1CwXN8Q6NTioNTQv2STe2ljvseC6Th3SaD3YUtcwuAFrgXBA0uO7jmtMZQ6QlfPGYxxcIIs50bTrEHfZzidXybelYPk1kxPWStihYXuJ2nkaPhPdyDpKkxh+jdhzCC7jpbcj5LA9YYGrYWCZNwUzNSCJkTeZjQL9JO8npJKwt6N1tXIH18twNwNzyGgCzO6S0VHG5mHw2J3nIczqT8licGSjqDCpIKdxErIJHcY0bTNqlxcBt99uHNZRedk1iFU8yGCqme7e90cjiebtiNwHkCm8WLgMVkxHAI6wMZtlrGi2yNFWsN6QSURkfsB73m+0df/AEoj5K5o8UbNFIKZ7AySN51nMbsa8HcXdHMt4Z4s20uIxwNifGx0b3EmS9tVzbHuQSTcBbJ1U1F7pcAp6eB9Pcua+17nhwtosdX0gqaioZU2a1zL2sOPG5N1Heh0V3/8yraOcMiJ9LnD6lnub/MZDQTids8sjwxzLODAyzrX2AX5PhLZdl9LPTYDRU7g+OP8Q0NyT6rBU49XVLDHJJ+E6iwHoEX41VI17S14DmuFnNcAQRzEHYR1r9kU+RfVQC6VJgsMfcRRs8FjW/UF2hGvtF5DGjQL0XE6lfOquVyi9ryiIiIiIiIiIiIiIiIiIiIiIiIiIiIiIiIiIiIiIiIiIiIiIiIiIiIiIiIuCtY5x8l9U8ewbD+EA5DyO8vL0rZxC69XSNe1zXC7XAgjoWrUwCZmyVsQTGJ4cFH1eVlRh/GQPaN9tYdY2rKMosHMErozuvdp52ncfs8i8wqkSR2JYVcopNHt5qMWJ4c0SSMc0Fkw1rOALTyOaQd/VzKHWkhmdZQStqadtqadxBYN0cm+w5mu3gcm0KxPL7IO93sBLb63a7Sx3Pb4K0bnpzYS4hQSU0eoZS5joy42Ac1wJvsNu1v51jpp/ZHZcune+QVlL+I2eAq81Png3MiA2nrsQc3t5JG08ZI26jBrvt0Fxb5ljWaDQODnskr5ONaCCY4wRF1OcdruoWU5cmcmoaSBlPTxtjijAa1rQGjzDZtW/LUB42W+aptZKA3YBzXqL6iiLiAASSbADlK/SlpHPcGsBc47gAtr5H5ENgAe+zpSN/IzoHT0r7TUrpzlpvKrFRUthGeu4L8sicihCBJIAZSNg36g6OnpWZAIGrlW+KJsTQ1qqskjpHbTkXySjitEZ0NI11JUS00EcZMJDXzTOIbrlocWtY3a7VBFzcb1v01NJUv2IhcqPqaqOnbtyGwW9i5fJlHOoS49pHV8t71jmD4NPG1n952s70rxcFzjyue976moOwAulmc4EuOwBt7X6lIV2FS0dM+oeQdkaDMnuWhQ4pFV1LadgIudTkApwVuWFLESJKiFhG8OlY0jyF115pzqYbu7Opb/AC8f7SgPlBjgM0juLjc4uN3uFy62y5XTix99wA1jeTYxv6lL0mBNmhZK55BcAbW0vnZRFXjr4ZnxNaCASL31srKaeoDgHNN2kAgg3BB2ggr9li+bOkLKCka6+sIIyb85brHzXWUKpSN2XFoN7Eq2xOL2Bx3i6IiLwsiIiIiLoYviscEb5ZXBjGNLnOO4Af8AlgOUrvrQWlDlM5rYKRpsH3lktyhuxgPRe56wOZReJ1ooqZ853ac9ylMLoTXVLKcZXOZ4AZn5LD8vc/1VUOcymc6ng3At2SPHOXb235m26ytejKqqvrdkT63Pxsl/PrLt5CZKmtqoqcbA93bHmY0XcfNs6yFL6gzeUccIhFNCWAWOtG1xds2lxIuSedcuoaKuxounfKWgGw1tfgALWsuqV9bQYGGU7IQ4kXOmmlySDclRwyIz91lM8CZ7qiHc5rzd4HO1+8kczr+RSiydx6OphZPC7WjeLtP1gjkIOwjnURc7+RbaGtfHHfi3tEsYPvWuJGr1Ag26LLYejBlK7XnpSSWlolYCdxB1X26wWnydKlMDxOop6s0FS6+ZAJN7Ed+8H7KKx7C6aooxiNI3ZyBIAtcHiNxH3UikX5Ccbri46QvsPC6ftBctsvpF86ya69XXxfS+dZCVqzP9lPU01NEaZ72PfLZzmC51A0k8htttt2LSrKptNC6ZwJDRew1W5SUzqqZsLCAXG1zotply+TMFCOrzj17+6q6g/wD+rh6GkBdGmxKaWSNr5ZH6z2jtnudvcBykqju6ZR7QayF3iQPur23oXLslzpm5cAT9lO0Fcr8qVlmtHM0DzBfquiA3C5yUREX1fERERERcErF8qs5dFR7J52td/Jtu5/8AZbcjrNgsMs0cTdqRwA4k2WWKJ8rtiNpJ4AXWUotWw6RuGE2L5mjnMTrei59CzvAMq6eqbr08rJW8uqbkeEN48oC1oK+mnNopGuPAEFbU9BU042po3NHEggL10XyHL6W+tBERERERERERERERERERERERERERERERERERERERERERERERERERERERERERERERERERERERERFxZcoiLDc4uT/GRcY0dvHt2creUeTetTKQ08YIIO47D1LQ+O4fxU0kfwXG3Udo9FlWsTh2SJArBhs1wWHdmuium7CIibmNl+fVC7i/SCBziGtBcTuAFyoHZvuU3tFu+y/JjANgFh5l6uB5OS1DrMGzlce5Hl+xZPk5m1c6zp+1HwB3R6zyeRbGoqBsbQ1jQ1o5AFNU2HF9jJkOG9Q9RXhuTMzxXmZOZKR07e1F3ne87z1cwXuALlcXVmYxrBst0Vec8uN3LlcLzq3HGRyMjJ7aS+r5OfmXoNKBwOi+EEL86qYNa5x2BoJJ6ALqufOHjhqKiSUm/GySzeR7zqeZgaOpTmzz4/2NhtXJezjEY2eHL97b6XeZV+4s+8jujtR1NAH2K89HIsnynuA9T9FR+kMubIxz+i6a7lHiGoCNVrrkEa3I4biOpdNFbZ4GVDDHKLtO7lmqrBO+B/tIzY8V9Pfc3PKvRyaojJUQxgX15WN87gvMWw8weD8fitK3ka/jD1M2r5M4RROO4A/IL7GDJKAdSVPjDqfUYxo3Na1vmFl218NX2uO3ubrrzRYWRERF6RERERRc0nWns6Pm7Hbb+2+6lGtMaSGRD54WVMTS58Fw8AXJida56dQi9uYnmVX6SU756B4YLkWNu4aq09GallPiEbn5A3bfnp88lrfRue0YjttcwSavX2u7yXUrA5QQyex6SmmjniNnxuuOY84PQRsK3hHpTjU20h4y38oNS/8AZ1vIqp0bxqmpaYwzu2SCToTe9uF8wrZ0mwOqqqkT07doEAHMC1r8bZFeBpPTA1sLeUU7Seovf+pdLRtB/wBI7P5CS/VdqwfLTLGWundPLYOIDWtaLBrQTZo5TvO071snRfpr1c7vgwW87x+pQ1NO2rxoSs0L7jwH9FNVMDqPAjFJqGWPMn+q8nPngtUyvnqDHK2FzmBkovqGzGt7obASRuNisFpMqKtpAZUVAO4Bssm/mABU2cewKOphfDKNZkjS09HMRzEHaDzqGGW+SMlBUvgfftTeN4vZzD3LgfrtuIPMtrpFhstHL7zG92w4kn/qTnblwWr0axOGti91kY3bYAB/2Ayvz4rf2a3FatuFVU075nSt450Zl1y8Bsfa219ttYXHItQ0+fbFG/8AU3t8KOM+ftVsrJvSAjZh15u2q47Rhn8qbdrIeS1h23SOkLQ9fXS1c5e4a80z+5aN5OwNa0cg2ABesUxDZip20k7i7ZzA1P6rH4r5WzXnCcO2pql1ZTtDdrIm1hbc24+G2d8vtsWk0ksRFgeIf1xkfovH1KUFIS5jC8DWLQSLbLkbbXWps2+YOniiD6yNs07rEtNy2P8AJFjYnnPPuW4QyyuuB09bHGXVr9ratYHMjn8lRceqKGSQMoWbIbe5GQdwt3arSek61raWABrQ50+8AA2DHbL9ZC0NkTTa9ZSt56iL9MErdGlRVbKRn5UrvMGD7Vq7NBTa+JUg/wDV1v7LS77FQ8bAkxhrBxYPT7roOBkx4K554PPr9lNFoTWQLVukBlTNS0sboJHRSOnDdZtr6oa4kbQRbd5l1urqW0sLpnaNF8lyCkpnVUzYGauNs1tIOS6h5TZ98UZ/1Ot4UcZ/7V61NpJ4i3fxD+uMj9F4+pVNnS+idqHDw+xVuf0Or26bJ5H7gKVt0uo00+lLVDuqaF3U57ftctl5p87bsSdK0wCLimtNw/XB1iRba1tt3Spekx6jqpBFE47R0FiO9Q9ZgFdSRmWVn4Rqbg93FfGe/OaaGFscRHZE1w0/AYNhfbn5G9PUoq60k0nvpJJHdLnvcT5ySVnukDiRkxOZpOyJsbG9HaBx9Livc0Z8nmy1UszhfiWDUvyPebX6w0HzrneJSSYrifut7NBLR3W1PPVdIwyOPCMK97td5aHHvvoOWnqsfrMwuJMi40xNIDdYsa9rpLWv3I2EjmBJWI5PZRzUkzZYXlj2nyEX2tc3lB3EH0KdLwobZ5MKbDiVSxgAaXB9huHGNDj6SVkx3BWYYxlRTOIN7G536gjyWHAMckxR76aqa0i1xYbtCCM+KlTkBleyupo6huwuFnt+A8bHN8+0dFlkq0FosYmS2qh5GmOQDpddp/RC36uk4RVmrpGTO1Iz5jL6LmmL0Yo6ySFugOXI5j1RERTCh0RERERERERERERERERERERERERERERERERERERERERERERERERERERERERERERERERERFwuC5Hlahy1zuyMkfFA0AMJaXu2kkbDqjda/PdR1bXRUbNuU+W9bEED5nbLFm+UWXMdM/UcxxOqHXFrbb856FrLKXHWVExkYLXAuLgm45di8SLGJKjWfM4vde23m5rDk3rzcLwfipXlvcPGwcxB3dSo82LyVLwGj/LJ8QrHTUjYsz8Vl60kgAJJAA3krbubyhh4hkjAC53dONr35urmWi8rZ9WB3SQPSvfyWzgy0cUNgHwkN127iDYbWnyblkpsSjp6rZk+G2utrr3VwPlj/BrdSDC+l4+TeUsVVEJYjdp3jlaeZw5CF64K6BHI2Roew3B0KqbmlpsdVyvh5ttX2sYzg43xNO83sX2YD17/AEJK8MYXHcvrGF7g0b14GEE1Vc6X/lw7G83KB59pWw2qOn+vDqYhuuYx3ezZe5tc/CtuIO5bYyKzhsqCInFvHausAD3TR74coUNQ1kbiWk/iJUvWUcjQHgfhAWAaWGMalJTw/wArUa58GBjnn+9qhQwkdck86kfpdY7rVcUQOyClJt+XUSav6EajdddswWLYpWnjc/35Li+MSbdU7gLBF32YFMWvcIn6rGhzzqnY117O57Gx29C7WAYUDJC6fXjge8NMtrDpsSCNi3TlPj9HR0s4bMJ5p2Fo7Zr3G4Ibu2NYwG4AsPOpCSexAZnyWjHBcEuy5qPq3/oe4Nr1001tkUJHlcbfVdaAUu9DbBNWlqJyNskgaOpg/wDlaWMSbFK/vyW5hMe3VM7s/JSIaF9oi5cuoIiIiIiIiIvzlbfYdoX6LC87eVjqKilmjIEl2sjuL9s4jk5dlyteombDG6R+gBJ8FnghdPI2JmriAPFY9lXo90VQ4vYX073G54uxYSeXUI2HqIXiYXowUzHa0tRJK0G+oGiMEcxN3G3VZeBg2lHI0AT0zXkb3xv1L/0S123+kF1cs9JGSeJ0VNCYdcWdI52s8A79UAAA25SSufS1mBOBn2QXa2sQSeWi6FDRdIG2gDiG6XuDYc/iWuc4ssRrZxA1rYWP4uMN3asYDfSQT5Vt7RZw02q5iNhMcbesaznfpNWiMLwuSeRsUTS+R7gGtG0kn7OUk7lMrN3km3D6OOEkXAL5XbgXna43PIO5HQAofo1TOqa51WRZrbngLncOQKm+k9SyloG0Yddx2RxNhqTzIWVFaF0mMVpCyOLuqtpu3Vt2jDvDz+VssN/L15VnVzzRUcRZTvZLUvHa6pDmxj4biCRfmbynoUZKSlnragNGtLPM/edpJO8k8gHKdwCnukmLs2DRQjbe7I77d36vRV/ozgz9sV0x2GNzG6/ef+vqvLUh9G3JSldG6quJKhrizVI/AjkIHO8e+8nOvIyzzA9j0DZIyX1EQL57Xs9p7oMHJxe8cpAPQte5s8vH4fUtlFzG6zZmfCYeXwm7x5uVVGihOEV0ZrGCxGutr7+bd6uFdOMZoJRRPzBzGl7buThpx81NFoX2urhuIMlYyRjg5r2hzSNxBFwu0u3tIIuNFwwgg2OqjVpSVP8AvFMz4MT3f2nAf9qxjR/pdbFIT8Bsjv7hH2r0tJWq1sQDfgQMHnLivvRnpr173fAp3nylzB+tcbk/zcet/wBx8v8A0u0Rf5PR+/8A/M/O/wB1KcLyMoMmKeqaGVETZWtOs0O5Da1x022L1wo/aTGPyxTUrYpZI+0kcdRzm3u5oF9Ui+5dPxSrZSUzpZG7TRbLjc2XLMLo5KupbDE7Zcb58LC+7NZ/U5isLd/04b4L3j/uXlVWjbhx3cczqkuPS0qPVLnLxBnc1c/leT9d161NnxxNv/Ul3hMYf+26oBxvCZOspv8A6t/ouhfsHGI+rqf/ALO/qts1Oi7SnuaiZvWGO+wFZbmvzUtwzjrTGbjdTaWBurq63M51736Ny0dTaR2JN3mF/XFb9EhbzzOZcTYhTPmmaxpEpYNQEAgNabm5O25UzhM2EzVANLHsyAE6Ec95ChcYgxeCmPvcm1GSBqD3jcDuUfs/eHGPE5yRskEb29ILAD/eaVkmjNlCyOomheQ0zMbqX2XcwnZ1kHd0LZ2efNb/AKQia+KwqIgdS+wPbysJ5Nu1p5D1qLWJYRPTSassckUjTygtIPO08vWCqziEM2FYl72GksJLr89R3HVWjDp4MXwz3MvAeGhvflobbxkFO5z7bSoaZ4cTbLiVS9rg5uuGgtIIOq0N2EbN4O5dajyixKr1YGTVM2t2oYHuOw8+3d1myxyvo3RvfG62sxxa6xuNZpsdvWseO43+0IWtZGWtve53m2g81kwDAf2dO5z5WucW2sNwvqfJb30VqfbVu+Sb+kf1KQq0hotUtqaof8KYD+ywfrW710Po63Zw+IdxPmSuddI37WIy8wPIBERFZFWkREREREREREREREREREREREREREREREREREREREREREREREREREREREREREREREREXBXK+XIi6uJ1Yjje87mNc7zC6jDiri4ued5cSfKVvrOjiPF0jwN7yGeff6AtDzDYVznpNLtSNi4C/n/6Vkwtlml6YHU2cW8/1hawxzPiafFJaeZhZTt1WxvIsb27Z/5THE22bQB0rPWutuXjZS5JU9W0NnjDwO5due2+/VcNoVJbOWt2VO7AvddvKnLSmdEwumjY09uCXDthbZq86xTNDlfUVVPUcf20QlIgdbtgBt1b8rW3DR5d603nXyHFBJGI3PkZI1xaHG7m2O0c1tuxbgzKUOph8R1w7jC5/a7m6xtq9Ytt6V5fI57i86kWWUtAC2xm3ywNJUNJJ4p5DZByWOwOtzt39V1JqGQEAjaCLjyqHT27wpC5nMrePp+Kebyw2aecs96fJu8iuvRjETc0sh72/UfVV/FabSVvI/dbFWH5zMPD6cutcsc0jZfebH/zoWXhfnNEHAggEHYQV0OWMSMLTvVeik9m8O4KI2VWTM80heC0tAaGC+21tvpWZ5j8ANNUukmLfwTmg37kbCTfyALP8sMgGRxyTRE9oC4x89t4aeTZz3Wu6SVxbd3ak8g5uYqkGE0tQC4Z6jgrmKv3qnMbdNFpnP7lEKivq5Gm7TKyJh/Ihjbu/pucVgOAYE+olbGwElxFzbY0cpPMANq3U/NFFI8vnlfJd8j7ABgJe7W27TuFhstuWSx4fT0kZ1GsiYB2zrhuwfCcdpXWJelkUVO2GmaXP2QO69vMrlUfRWWSd0tQ4NZtE2329AtVZ4qtsQpaNje0ZGX61thI7S3XvJ61rNe5lhlQ6rmc8kFjS5sQAsBGHHV2b+23knnXhq6YLTvgpGCT4jmeZzVOxidk1U8x/CMhyGS5Cn3o9YF2PhVM33z2mQ/0zceiygngGHGaeKIC5e9rfOVZLgGHiKGKMbBHGxg/otAUX0ilsxkfffy/9qS6PRXkdJwFvNeiiIqIr4iIiIiIiIi8LKzJGCtjMM7dZlw4WJBDgCAQRyi5XuosckbZGljxcHUHeskcjo3B7CQRmCMiFoTF9FthJMFU5g+DJGH/AN4OZ9RXSoNFh1/vtW3VvuZEb26y+w8xUh0Vdd0bw8u2vZ/MgeqsbekuJBuz7X5C/nZYdkRmvpKAfeWEyEWdK/tnnoBsA0dDQF6WXVBJLR1EUQvJJE9jRcC5cLbzsG9e+im20sbIjCwbLbEZZaqCdUyvlE0jtp1wbnPRQ2qcyOKN30jj4L4negPv6F8YJkRiUE8bm09VEddrS9jHggFwv2zeTn6FM1FTv8IUzXh7JHAg33fYK6HpjVOaWPjYQRbQ/crVefjKGop6SM07nNe+QNcWtDrt1XEg3BsDsUU5WkHaLE7dosp/OYDyLqz4VG7uo4z1safrCz4v0ddiEvtPakACwFrgfPetfBukbcNi9n7EOJNy69ifluUZcxmcKrbU09EHh0DnOu1wuWjVc46rthG69toXvZbaQtXT1U8EUcBbFIWNc4PJOrz2eBv5rLd9PkpTMeJGU8LZBue2NgcLixsQAdoNl4uKZpMOnc58lKwveS5zgXNcXHaSS1w2kry3Ca+GlEENR+IHU/ltbZGqOxfD5qs1E1P+Et0FvivcuOiiTlhlZLWzuqJQ0PcGghgIaA0WFgST6V7uavOMMNlkkMJlEjAwgO1S3tr3Ham/VsW/6nR6wx26J7fBlf8A9xcvJqtGKhPcy1DP6TCPTHf0qtDo7ikU/vLHNL73vff4i29Wh3STCpqf3V7HBlrWtuHI33LJc3ud2nxFzo4mSsexmu4PDdW1wNjmuN9p5QFl1fgsMv4WKOS27XY11vOCsNzcZoYsNklkjlfJxjQ2z2tFgDfeN91sELo9A2d0AFYBt77Wt3dy5nXGnbOTRk7GVr3v396xapzZ4e/uqOnPVG0fogLyqnMbhbv+la3wXyN+p9vQs+SyzPoKZ/xRtPNoWJldUs+GVw5OP3WqqjRww124TM8GU/8AcHLNMhsioqCHiIS9zNZz7yEF13dLWtGy3MshsuV5gw6mgf7SKNrXaXAsvc2IVM7PZyyOc3WxN11MQxBkYBke1gJ1QXODQSdwBPKeZfFRQxyAa7GPHJrBrh6brUukvTzvp4GxRSPYHufIWNLg3VbZt7XPKdtrbFH/AA/LKsh2R1M7LcgkfYf0SbDzKt4n0hbRVBhkiJbYZ/0ORVmwzo26upxPFKGuucuWW7MeSlvldjlNh1NJLqxRmxDGNa1pe89yAABy7+YbVDGoqC9znHaXEuPWTc+ldzFcbnqHB00kkruTXc5x8gNwPJZbOzTZj5aiRk9Uwx07SHBjhZ8pG0C29rOcnad3LdUmtqZsdnZFTx2YPlfUncFeKGmhwCnfLUyBzz87aNaNStw5i8njT4fDrCzpbzOHL2/c3/ohq2IvygiAAA2AbAOYci/VdgpIBTwsibo0ALjdVUOqJnzO1cSfNERFtrVRERERERERERERERERERERERERERERERERERERERERERERERERERERERERERERERERfLl9L5ciLVmeiv8AwMfhPPoA+1atduPUswzp1uvVuHIxrW+W1z9aw2Y7CuQYvL7Wqe7w8slcaJmzE0LzURFWVKLS2fvUM9IHkhmq/WI3gawXSzC5WBk0tE53aPvJCTs2ju2jrHbW6Cv10iB98pvAf+kFqKnxF8Ekc7DZ8T2vHkO0HoI2INVntdtlMSqG1evkVlO6kqGSjub6rxzsOw+Ubx1LHsKxRtRBHOza2RjXjyi5HkOzyL9F9jldBIJGZEZrA9ge0tdvUwqKtbI1r2m7XAEEbiDuSqq2saXOIa0bSTuC0vmjzjNia6nndZrQXRuPJyln2jzL8sq8sJa14ijDgy9mMG9553fq3BdabjsTqdsgzectnv8AsqcaB4kLT8I39y72VmXMlVIIafW1L2Fu6kPT+Tbk86wLKPKdtNxvGNcTDrawFt7eQbfSt45CZDNpm67wDM4bT8EfBb9p5VoDSBwp3ZNQxgvxjo3G3wXahd6AVoOppy+KSodbbe0OvkGg+i2feWxskbCPhaSO8rD8oM95bdkUNnfCe64B8Eb7da1jjmVE9SbzSueORu5g6miwWd5O5k6qulk4qxF7uvYWDr2vfq5AVuHJbRDjbZ1TLc8rWbfSbD+6V3KniwigG1Fsk8R+I/VcnnnxSu/C/atw+EKKlPRucbNaSegLN8lcy1fVkcXC7V+EQQB5TYelTQybzOYfTW1IGuI98/tj5j2o8yzOKAAWAAA5AAB5l4n6QjSFvift/VZIOjzibzOt3D7qPuavRfFLLFUVEgdJG4ODG7Rcc52DzA9akIxfWqllVKqrlqX7cpv9FaqWkjpm7MYX0iItRbqIiIiIiIiIiIiIiIiIiIiIiIiIiIi4sllyiIuLIuURFxZcoiIiIiIiIiIuC1eHiWRFHKbyU0DzzujZfz2v6V7qLG+Nj8nAHnmsjJHsN2EjlkvBwvIajhN4qaFh52xtv57XXu2XKIyNkYswAcskfI55u8k881wuURZFjRERERERERERERERERERERERERERERERERERERERERERERERERERERERERERERERERERERfEiIi+HRR3y1P+9z/KH6gsfqu5KIuJ1nWv5lXqH4G8gvPREUKtxaP0ifwlN4D/AKwtaZOxAueCARxb9hF/e9KIscmi2mLeWYSQnC2XJNnSgX5BrnYOYLOURfZPiWEalepg42FbTzPRAzPJAJDdhsLjbyLlFYcE7Qzmoqv6o+K26o6Z5vx5/gx/orlFd+k/ZP4goLCeu/hK9jMEfv8AP8mP0gt5tXCLZ6P9gbzKxYl2gr9GrhqIrMotfaIi9L0iIiIiIiIiIiIiIiIiIiIiIiIiIiIiIiIiIiIiIiIiIiIiIiIiIiIiIiIiIiIiIiIiIiIiIiIiIiIiIiIiIiIiIiIiIiIiIiIiIiIiIiIiIiIiIiIiIiIiIiIv/9k=;" vertex="1" parent="7">
                    <mxGeometry x="410" y="80" width="302.13" height="170" as="geometry"/>
                </mxCell>
                <mxCell id="8" value="&lt;font style=&quot;font-size: 18px;&quot;&gt;Multiplication using a while loop, in JS&lt;/font&gt;" style="text;html=1;align=center;verticalAlign=middle;resizable=0;points=[];autosize=1;strokeColor=none;fillColor=none;" vertex="1" parent="1">
                    <mxGeometry x="205" y="63" width="330" height="40" as="geometry"/>
                </mxCell>
                <mxCell id="9" value="Input 2 positive Integers:" style="text;html=1;align=center;verticalAlign=middle;resizable=0;points=[];autosize=1;strokeColor=none;fillColor=none;" vertex="1" parent="1">
                    <mxGeometry x="55" y="118" width="150" height="30" as="geometry"/>
                </mxCell>
            </root>
        </mxGraphModel>
    </diagram>
</mxfile>